<?xml version="1.0" encoding="utf-8"?>
<!-- Generator: Adobe Illustrator 20.0.0, SVG Export Plug-In . SVG Version: 6.00 Build 0)  -->
<svg version="1.1" id="Calque_1" xmlns="http://www.w3.org/2000/svg" xmlns:xlink="http://www.w3.org/1999/xlink" x="0px" y="0px"
	 viewBox="0 0 257.9 55" style="enable-background:new 0 0 257.9 55;" xml:space="preserve">
<style type="text/css">
	.st0{fill:#BBAE94;}
	.st1{fill:#FFFFFF;}
</style>
<path class="st0" d="M81.5,12.6L81.5,12.6c-0.1-0.3-0.3-0.7-0.5-1.7c-0.2-0.9-0.5-1.2-1.2-1.2h-0.7v2.9H78v-7l0.1,0
	c0.4-0.1,1.1-0.1,1.7-0.1c1,0,1.6,0.2,2.1,0.6c0.4,0.3,0.6,0.8,0.6,1.4c0,0.8-0.4,1.4-1.1,1.8c0.4,0.2,0.7,0.7,0.8,1.3
	c0.2,0.9,0.4,1.6,0.5,1.8l0.1,0.2H81.5z M79.9,8.7c0.8,0,1.4-0.5,1.4-1.2c0-0.9-0.8-1.1-1.4-1.1c-0.3,0-0.6,0-0.7,0.1v2.2H79.9z"/>
<path class="st0" d="M78.1,5.7c0.4-0.1,1.1-0.1,1.7-0.1c0.9,0,1.5,0.2,2,0.6c0.3,0.3,0.5,0.8,0.5,1.3c0,0.9-0.6,1.5-1.3,1.7v0
	c0.5,0.2,0.8,0.7,1,1.4c0.2,0.9,0.4,1.6,0.5,1.9h-0.9c-0.1-0.2-0.3-0.8-0.5-1.6c-0.2-0.9-0.6-1.3-1.4-1.3H79v2.9h-0.9V5.7z M79,8.8
	h0.9c0.9,0,1.5-0.5,1.5-1.3c0-0.9-0.6-1.3-1.6-1.3c-0.4,0-0.7,0-0.9,0.1V8.8z"/>
<polygon class="st0" points="87.4,12.6 87.4,5.5 91.4,5.5 91.4,6.5 88.6,6.5 88.6,8.4 91.2,8.4 91.2,9.4 88.6,9.4 88.6,11.5 
	91.5,11.5 91.5,12.6 "/>
<polygon class="st0" points="91.1,9.2 88.5,9.2 88.5,11.7 91.4,11.7 91.4,12.4 87.6,12.4 87.6,5.6 91.2,5.6 91.2,6.4 88.5,6.4 
	88.5,8.5 91.1,8.5 "/>
<path class="st0" d="M98,12.7c-0.7,0-1.4-0.2-1.8-0.5l-0.1-0.1l0.3-1l0.2,0.1c0.4,0.3,1,0.4,1.5,0.4c0.8,0,1.3-0.4,1.3-1
	c0-0.6-0.3-0.9-1.2-1.2c-1.3-0.5-1.9-1.1-1.9-2.1c0-1.2,1-2,2.3-2c0.8,0,1.3,0.2,1.6,0.4l0.1,0.1l-0.3,1l-0.1-0.1
	c-0.2-0.1-0.6-0.3-1.2-0.3c-0.8,0-1.1,0.4-1.1,0.9c0,0.5,0.3,0.8,1.3,1.2c1.3,0.5,1.8,1.1,1.8,2.1C100.5,11.5,99.8,12.7,98,12.7"/>
<path class="st0" d="M96.5,11.4c0.4,0.2,1,0.4,1.6,0.4c0.9,0,1.4-0.5,1.4-1.2c0-0.6-0.4-1-1.3-1.4c-1.1-0.4-1.8-1-1.8-1.9
	c0-1.1,0.9-1.8,2.2-1.8c0.7,0,1.2,0.2,1.5,0.3l-0.2,0.7c-0.2-0.1-0.7-0.3-1.3-0.3c-0.9,0-1.3,0.6-1.3,1c0,0.6,0.4,0.9,1.3,1.3
	c1.2,0.4,1.7,1,1.7,2c0,1-0.8,2-2.4,2c-0.7,0-1.4-0.2-1.7-0.4L96.5,11.4z"/>
<polygon class="st0" points="106.7,12.6 106.7,6.5 104.7,6.5 104.7,5.5 110,5.5 110,6.5 107.9,6.5 107.9,12.6 "/>
<polygon class="st0" points="106.9,6.4 104.8,6.4 104.8,5.6 109.9,5.6 109.9,6.4 107.8,6.4 107.8,12.4 106.9,12.4 "/>
<path class="st0" d="M118,12.6l-0.7-2.1h-2.2l-0.7,2.1h-1.2l2.4-7.1h1.3l2.4,7.1H118z M117,9.5l-0.6-1.8c-0.1-0.3-0.2-0.5-0.2-0.8
	c-0.1,0.3-0.1,0.5-0.2,0.8l-0.6,1.8H117z"/>
<path class="st0" d="M115,10.3l-0.7,2.1h-0.9l2.3-6.8h1.1l2.3,6.8h-0.9l-0.7-2.1H115z M117.2,9.6l-0.7-2c-0.2-0.4-0.3-0.8-0.4-1.2h0
	c-0.1,0.4-0.2,0.8-0.3,1.2l-0.7,2H117.2z"/>
<path class="st0" d="M126.3,12.7c-1,0-2.6-0.4-2.6-3V5.5h1.2v4.2c0,1.3,0.5,2,1.4,2c1.3,0,1.5-1.1,1.5-2V5.5h1.2v4.1
	C129,11.5,128,12.7,126.3,12.7"/>
<path class="st0" d="M124.7,5.6v4c0,1.5,0.7,2.2,1.6,2.2c1,0,1.7-0.7,1.7-2.2v-4h0.9v4c0,2.1-1.1,2.9-2.6,2.9
	c-1.4,0-2.4-0.8-2.4-2.9v-4H124.7z"/>
<path class="st0" d="M137.8,12.6L137.8,12.6c-0.1-0.3-0.3-0.7-0.5-1.7c-0.2-0.9-0.5-1.2-1.2-1.2h-0.7v2.9h-1.2v-7l0.1,0
	c0.4-0.1,1.1-0.1,1.7-0.1c1,0,1.6,0.2,2.1,0.6c0.4,0.3,0.6,0.8,0.6,1.4c0,0.8-0.4,1.4-1.1,1.8c0.4,0.2,0.7,0.7,0.8,1.3
	c0.2,0.9,0.4,1.6,0.5,1.8l0.1,0.2H137.8z M136.2,8.7c0.8,0,1.4-0.5,1.4-1.2c0-0.9-0.8-1.1-1.4-1.1c-0.3,0-0.6,0-0.7,0.1v2.2H136.2z"
	/>
<path class="st0" d="M134.4,5.7c0.4-0.1,1.1-0.1,1.7-0.1c0.9,0,1.5,0.2,2,0.6c0.3,0.3,0.5,0.8,0.5,1.3c0,0.9-0.6,1.5-1.3,1.7v0
	c0.5,0.2,0.8,0.7,1,1.4c0.2,0.9,0.4,1.6,0.5,1.9h-0.9c-0.1-0.2-0.3-0.8-0.5-1.6c-0.2-0.9-0.6-1.3-1.4-1.3h-0.8v2.9h-0.9V5.7z
	 M135.3,8.8h0.9c0.9,0,1.5-0.5,1.5-1.3c0-0.9-0.6-1.3-1.6-1.3c-0.4,0-0.7,0-0.9,0.1V8.8z"/>
<path class="st0" d="M148,12.6l-0.7-2.1h-2.2l-0.7,2.1h-1.2l2.4-7.1h1.3l2.4,7.1H148z M147,9.5l-0.6-1.8c-0.1-0.3-0.2-0.5-0.2-0.8
	c-0.1,0.3-0.1,0.5-0.2,0.8l-0.6,1.8H147z"/>
<path class="st0" d="M145,10.3l-0.7,2.1h-0.9l2.3-6.8h1.1l2.3,6.8h-0.9l-0.7-2.1H145z M147.2,9.6l-0.7-2c-0.2-0.4-0.3-0.8-0.4-1.2h0
	c-0.1,0.4-0.2,0.8-0.3,1.2l-0.7,2H147.2z"/>
<path class="st0" d="M158.3,12.6L156.1,9c-0.4-0.7-0.8-1.2-1-1.7c0,0.7,0,1.3,0,2.2v3H154V5.5h1.2l2.2,3.5c0.4,0.6,0.7,1.1,0.9,1.6
	c0-0.7-0.1-1.4-0.1-2.1v-3h1.1v7.1H158.3z"/>
<path class="st0" d="M154.1,12.4V5.6h1l2.2,3.4c0.5,0.8,0.9,1.5,1.2,2.2l0,0c-0.1-0.9-0.1-1.7-0.1-2.8V5.6h0.8v6.8h-0.9L156.2,9
	c-0.5-0.8-0.9-1.5-1.3-2.3l0,0c0.1,0.9,0.1,1.7,0.1,2.8v2.9H154.1z"/>
<polygon class="st0" points="166,12.6 166,6.5 163.9,6.5 163.9,5.5 169.2,5.5 169.2,6.5 167.1,6.5 167.1,12.6 "/>
<polygon class="st0" points="166.1,6.4 164,6.4 164,5.6 169.1,5.6 169.1,6.4 167,6.4 167,12.4 166.1,12.4 "/>
<path class="st0" d="M175.2,12.7c-0.7,0-1.4-0.2-1.8-0.5l-0.1-0.1l0.3-1l0.2,0.1c0.4,0.3,1,0.4,1.5,0.4c0.8,0,1.3-0.4,1.3-1
	c0-0.6-0.3-0.9-1.2-1.2c-1.3-0.5-1.9-1.1-1.9-2.1c0-1.2,1-2,2.3-2c0.8,0,1.3,0.2,1.6,0.4l0.1,0.1l-0.3,1L177,6.7
	c-0.2-0.1-0.6-0.3-1.2-0.3c-0.8,0-1.1,0.4-1.1,0.9c0,0.5,0.3,0.8,1.3,1.2c1.3,0.5,1.8,1.1,1.8,2.1C177.7,11.5,177,12.7,175.2,12.7"
	/>
<path class="st0" d="M173.7,11.4c0.4,0.2,1,0.4,1.6,0.4c0.9,0,1.4-0.5,1.4-1.2c0-0.6-0.4-1-1.3-1.4c-1.1-0.4-1.8-1-1.8-1.9
	c0-1.1,0.9-1.8,2.2-1.8c0.7,0,1.2,0.2,1.5,0.3l-0.2,0.7c-0.2-0.1-0.7-0.3-1.3-0.3c-0.9,0-1.3,0.6-1.3,1c0,0.6,0.4,0.9,1.3,1.3
	c1.2,0.4,1.7,1,1.7,2c0,1-0.8,2-2.4,2c-0.7,0-1.4-0.2-1.7-0.4L173.7,11.4z"/>
<path class="st0" d="M18.3,49.5l-1.8-5.5h1l0.8,2.7c0.2,0.5,0.3,1,0.4,1.5c0.1-0.4,0.3-0.9,0.5-1.5l0.9-2.7h1l-2,5.5H18.3z"/>
<path class="st0" d="M18.4,49.4l-1.7-5.2h0.7l0.8,2.6c0.2,0.7,0.4,1.3,0.6,1.9h0c0.1-0.6,0.4-1.3,0.6-1.9l0.9-2.6H21l-1.9,5.2H18.4z
	"/>
<path class="st0" d="M27.2,49.5L27.2,49.5c-0.1-0.2-0.2-0.6-0.4-1.3c-0.1-0.7-0.4-0.9-0.9-0.9h-0.5v2.3h-0.9v-5.4l0.1,0
	c0.3-0.1,0.8-0.1,1.3-0.1c0.8,0,1.2,0.1,1.6,0.5c0.3,0.3,0.5,0.7,0.5,1.1c0,0.6-0.3,1.1-0.8,1.3c0.3,0.2,0.5,0.5,0.6,1
	c0.2,0.7,0.3,1.2,0.4,1.4l0.1,0.2H27.2z M26,46.5c0.6,0,1-0.3,1-0.8c0-0.5-0.4-0.8-1.1-0.8c-0.2,0-0.4,0-0.5,0v1.6H26z"/>
<path class="st0" d="M24.6,44.3c0.3-0.1,0.8-0.1,1.3-0.1c0.7,0,1.2,0.1,1.5,0.4c0.3,0.2,0.4,0.6,0.4,1c0,0.7-0.4,1.1-1,1.3v0
	c0.4,0.1,0.6,0.5,0.8,1c0.2,0.7,0.3,1.2,0.4,1.4h-0.7c-0.1-0.1-0.2-0.6-0.3-1.2c-0.2-0.7-0.4-1-1-1h-0.6v2.3h-0.7V44.3z M25.3,46.6
	H26c0.7,0,1.2-0.4,1.2-1c0-0.7-0.5-1-1.2-1c-0.3,0-0.6,0-0.7,0.1V46.6z"/>
<path class="st0" d="M35,49.5l-0.6-1.6h-1.6l-0.5,1.6h-1l1.9-5.5h1l1.9,5.5H35z M34.3,47.1l-0.4-1.3c-0.1-0.2-0.1-0.3-0.1-0.5
	c0,0.2-0.1,0.3-0.1,0.5l-0.4,1.3H34.3z"/>
<path class="st0" d="M32.7,47.8l-0.5,1.6h-0.7l1.8-5.2h0.8l1.8,5.2h-0.7l-0.6-1.6H32.7z M34.5,47.2l-0.5-1.5
	c-0.1-0.3-0.2-0.6-0.3-0.9h0c-0.1,0.3-0.2,0.6-0.3,0.9l-0.5,1.5H34.5z"/>
<rect x="39.6" y="44.1" class="st0" width="0.9" height="5.5"/>
<rect x="39.7" y="44.2" class="st0" width="0.7" height="5.2"/>
<path class="st0" d="M45.7,49.6c-0.5,0-1.1-0.1-1.4-0.4l-0.1-0.1l0.3-0.8l0.2,0.1c0.3,0.2,0.7,0.3,1.1,0.3c0.6,0,0.9-0.3,0.9-0.7
	c0-0.4-0.1-0.6-0.9-0.9c-1-0.4-1.5-0.9-1.5-1.6c0-0.9,0.7-1.6,1.8-1.6c0.6,0,1,0.2,1.2,0.3l0.1,0.1l-0.3,0.8L47.1,45
	c-0.2-0.1-0.5-0.2-0.9-0.2c-0.6,0-0.8,0.3-0.8,0.6c0,0.4,0.2,0.6,0.9,0.9c1,0.4,1.4,0.9,1.4,1.7C47.7,48.7,47.2,49.6,45.7,49.6"/>
<path class="st0" d="M44.6,48.6c0.3,0.2,0.7,0.3,1.2,0.3c0.7,0,1.1-0.4,1.1-0.9c0-0.5-0.3-0.8-1-1c-0.8-0.3-1.4-0.7-1.4-1.5
	c0-0.8,0.7-1.4,1.7-1.4c0.5,0,0.9,0.1,1.1,0.3l-0.2,0.5c-0.2-0.1-0.5-0.2-1-0.2c-0.7,0-1,0.4-1,0.8c0,0.5,0.3,0.7,1,1
	c0.9,0.3,1.3,0.8,1.3,1.5c0,0.8-0.6,1.5-1.8,1.5c-0.5,0-1.1-0.1-1.3-0.3L44.6,48.6z"/>
<path class="st0" d="M58.6,49.6c-0.9,0-1.5-0.2-2-0.7c-0.5-0.5-0.8-1.2-0.8-2c0-1.7,1.2-2.8,3-2.8c0.6,0,1.1,0.1,1.4,0.3l0.1,0.1
	L60,45.1l-0.1-0.1c-0.2-0.1-0.5-0.2-1.1-0.2c-1.2,0-2,0.7-2,2c0,1.2,0.7,2,1.9,2c0.4,0,0.6-0.1,0.8-0.1v-1.3h-1.1v-0.8h2v2.7l-0.1,0
	C59.9,49.4,59.3,49.6,58.6,49.6"/>
<path class="st0" d="M60.2,49.2c-0.3,0.1-0.9,0.3-1.6,0.3c-0.8,0-1.4-0.2-1.9-0.7c-0.4-0.4-0.7-1.1-0.7-1.9c0-1.6,1.1-2.7,2.8-2.7
	c0.6,0,1.1,0.1,1.3,0.2l-0.2,0.5c-0.3-0.1-0.6-0.2-1.2-0.2c-1.3,0-2.1,0.8-2.1,2.1c0,1.3,0.8,2.1,2,2.1c0.4,0,0.7-0.1,0.9-0.1v-1.6
	h-1.1v-0.5h1.7V49.2z"/>
<path class="st0" d="M66.4,49.6c-1.5,0-2.5-1.1-2.5-2.8c0-1.7,1.1-2.9,2.6-2.9c1.5,0,2.5,1.1,2.5,2.8C68.9,48.7,67.6,49.6,66.4,49.6
	 M66.4,44.8c-1.1,0-1.5,1-1.5,2c0,0.9,0.5,2,1.5,2c1.1,0,1.5-1,1.5-2C67.9,45.8,67.5,44.8,66.4,44.8"/>
<path class="st0" d="M68.8,46.7c0,1.8-1.1,2.7-2.4,2.7c-1.4,0-2.3-1.1-2.3-2.6c0-1.7,1-2.7,2.4-2.7C67.9,44.1,68.8,45.2,68.8,46.7
	 M64.7,46.8c0,1.1,0.6,2.1,1.7,2.1c1.1,0,1.7-1,1.7-2.2c0-1-0.5-2.1-1.7-2.1C65.3,44.7,64.7,45.7,64.7,46.8"/>
<path class="st0" d="M74.6,49.6c-0.7,0-2-0.3-2-2.4v-3.2h1v3.2c0,1,0.4,1.5,1.1,1.5c0.7,0,1.1-0.5,1.1-1.5v-3.2h1v3.2
	C76.7,48.7,75.9,49.6,74.6,49.6"/>
<path class="st0" d="M73.4,44.2v3.1c0,1.2,0.5,1.7,1.2,1.7c0.8,0,1.3-0.5,1.3-1.7v-3.1h0.7v3c0,1.6-0.8,2.3-2,2.3
	c-1.1,0-1.9-0.6-1.9-2.2v-3.1H73.4z"/>
<path class="st0" d="M83.4,49.5L83.4,49.5c-0.1-0.2-0.2-0.6-0.4-1.3c-0.1-0.7-0.4-0.9-0.9-0.9h-0.5v2.3h-0.9v-5.4l0.1,0
	c0.3-0.1,0.8-0.1,1.3-0.1c0.8,0,1.2,0.1,1.6,0.5c0.3,0.3,0.5,0.7,0.5,1.1c0,0.6-0.3,1.1-0.8,1.3c0.3,0.2,0.5,0.5,0.6,1
	c0.2,0.7,0.3,1.2,0.4,1.4l0.1,0.2H83.4z M82.2,46.5c0.6,0,1-0.3,1-0.8c0-0.5-0.4-0.8-1.1-0.8c-0.2,0-0.4,0-0.5,0v1.6H82.2z"/>
<path class="st0" d="M80.8,44.3c0.3-0.1,0.8-0.1,1.3-0.1c0.7,0,1.2,0.1,1.5,0.4c0.3,0.2,0.4,0.6,0.4,1c0,0.7-0.4,1.1-1,1.3v0
	c0.4,0.1,0.6,0.5,0.8,1c0.2,0.7,0.3,1.2,0.4,1.4h-0.7c-0.1-0.1-0.2-0.6-0.3-1.2c-0.2-0.7-0.4-1-1-1h-0.6v2.3h-0.7V44.3z M81.5,46.6
	h0.7c0.7,0,1.2-0.4,1.2-1c0-0.7-0.5-1-1.2-1c-0.3,0-0.6,0-0.7,0.1V46.6z"/>
<path class="st0" d="M92.4,49.5l-0.1-2.4c0-0.5-0.1-1-0.1-1.4c-0.1,0.4-0.3,0.8-0.4,1.2l-1,2.6h-0.7l-0.9-2.6
	c-0.2-0.5-0.3-0.8-0.4-1.2c0,0.5,0,1-0.1,1.4l-0.1,2.4h-0.9l0.4-5.5h1.1l0.9,2.6c0.2,0.5,0.3,0.9,0.4,1.3c0.1-0.4,0.2-0.8,0.4-1.3
	l1-2.6H93l0.3,5.5H92.4z"/>
<path class="st0" d="M92.4,47.1c0-0.7-0.1-1.6-0.1-2.2h0c-0.2,0.6-0.4,1.3-0.7,2l-0.9,2.5h-0.5l-0.8-2.5c-0.2-0.7-0.5-1.4-0.6-2h0
	c0,0.6-0.1,1.5-0.1,2.3l-0.1,2.2h-0.6l0.4-5.2h0.9l0.9,2.5c0.2,0.6,0.4,1.2,0.5,1.8h0c0.1-0.5,0.3-1.1,0.5-1.8l0.9-2.5h0.9l0.3,5.2
	h-0.7L92.4,47.1z"/>
<path class="st0" d="M100.4,49.5l-0.6-1.6h-1.6l-0.5,1.6h-1l1.9-5.5h1l1.9,5.5H100.4z M99.6,47.1l-0.4-1.3c-0.1-0.2-0.1-0.3-0.1-0.5
	c0,0.2-0.1,0.3-0.1,0.5l-0.4,1.3H99.6z"/>
<path class="st0" d="M98.1,47.8l-0.5,1.6h-0.7l1.8-5.2h0.8l1.8,5.2h-0.7l-0.6-1.6H98.1z M99.8,47.2l-0.5-1.5
	c-0.1-0.3-0.2-0.6-0.3-0.9h0c-0.1,0.3-0.2,0.6-0.3,0.9l-0.5,1.5H99.8z"/>
<path class="st0" d="M108.2,49.5l-1.7-2.7c-0.3-0.5-0.5-0.9-0.7-1.2c0,0.5,0,1,0,1.6v2.4h-0.9v-5.5h0.9l1.7,2.7
	c0.2,0.4,0.5,0.8,0.6,1.1c0-0.5,0-1,0-1.5v-2.3h0.9v5.5H108.2z"/>
<path class="st0" d="M105.1,49.4v-5.2h0.7l1.7,2.6c0.4,0.6,0.7,1.2,0.9,1.7l0,0c-0.1-0.7-0.1-1.3-0.1-2.1v-2.2h0.6v5.2h-0.7
	l-1.7-2.6c-0.4-0.6-0.7-1.2-1-1.7l0,0c0,0.7,0.1,1.3,0.1,2.1v2.2H105.1z"/>
<path class="st0" d="M114.5,49.6c-0.4,0-0.9,0-1.2-0.1l-0.1,0v-5.4l0.1,0c0.5-0.1,1-0.1,1.4-0.1c1,0,1.7,0.2,2.2,0.7
	c0.5,0.5,0.8,1.1,0.8,2c0,0.9-0.3,1.6-0.8,2.1C116.4,49.3,115.5,49.6,114.5,49.6 M114.1,48.7c0.2,0,0.3,0,0.5,0
	c1.3,0,2.1-0.7,2.1-2.1c0-0.6-0.2-1-0.5-1.4c-0.3-0.3-0.8-0.5-1.5-0.5c-0.3,0-0.5,0-0.6,0V48.7z"/>
<path class="st0" d="M113.3,44.3c0.4-0.1,0.9-0.1,1.4-0.1c1,0,1.7,0.2,2.1,0.6c0.5,0.4,0.7,1,0.7,1.9c0,0.8-0.3,1.5-0.7,2
	c-0.5,0.5-1.3,0.8-2.3,0.8c-0.5,0-0.9,0-1.2-0.1V44.3z M113.9,48.9c0.2,0,0.4,0,0.7,0c1.4,0,2.2-0.8,2.2-2.2c0-1.2-0.7-2-2.1-2
	c-0.3,0-0.6,0-0.8,0.1V48.9z"/>
<path class="st0" d="M122.5,49.6c-0.5,0-1.1-0.1-1.4-0.4l-0.1-0.1l0.3-0.8l0.2,0.1c0.3,0.2,0.7,0.3,1.1,0.3c0.6,0,0.9-0.3,0.9-0.7
	c0-0.4-0.1-0.6-0.9-0.9c-1-0.4-1.5-0.9-1.5-1.6c0-0.9,0.7-1.6,1.8-1.6c0.6,0,1,0.2,1.2,0.3l0.1,0.1l-0.3,0.8l-0.1-0.1
	c-0.2-0.1-0.5-0.2-0.9-0.2c-0.6,0-0.8,0.3-0.8,0.6c0,0.4,0.2,0.6,0.9,0.9c1,0.4,1.4,0.9,1.4,1.7C124.5,48.7,124,49.6,122.5,49.6"/>
<path class="st0" d="M121.4,48.6c0.3,0.2,0.7,0.3,1.2,0.3c0.7,0,1.1-0.4,1.1-0.9c0-0.5-0.3-0.8-1-1c-0.8-0.3-1.4-0.7-1.4-1.5
	c0-0.8,0.7-1.4,1.7-1.4c0.5,0,0.9,0.1,1.1,0.3l-0.2,0.5c-0.2-0.1-0.5-0.2-1-0.2c-0.7,0-1,0.4-1,0.8c0,0.5,0.3,0.7,1,1
	c0.9,0.3,1.3,0.8,1.3,1.5c0,0.8-0.6,1.5-1.8,1.5c-0.5,0-1.1-0.1-1.3-0.3L121.4,48.6z"/>
<path class="st0" d="M134.3,49.6c-1.1,0-1.7-0.8-1.7-1.6c0-0.7,0.3-1.2,1-1.6c-0.2-0.3-0.4-0.7-0.4-1.1c0-0.7,0.5-1.4,1.5-1.4
	c0.7,0,1.3,0.5,1.3,1.2c0,0.6-0.3,1-1.1,1.4c0.3,0.4,0.7,0.8,1.1,1.2c0.2-0.3,0.3-0.8,0.4-1.3l0-0.1h0.9l0,0.2
	c-0.1,0.8-0.4,1.5-0.7,1.9c0.2,0.2,1,1.1,1,1.1h-1.2l0,0c-0.1-0.1-0.2-0.2-0.4-0.4C135.4,49.4,134.9,49.6,134.3,49.6 M134,47
	c-0.3,0.2-0.5,0.5-0.5,0.9c0,0.5,0.4,0.9,0.9,0.9c0.3,0,0.6-0.1,0.9-0.3C135,48.2,134.5,47.6,134,47 M134.6,44.7
	c-0.4,0-0.5,0.3-0.5,0.6c0,0.3,0.1,0.5,0.3,0.8c0.4-0.3,0.7-0.5,0.7-0.8C135.1,45.2,135.1,44.7,134.6,44.7"/>
<path class="st0" d="M136.3,49.4c-0.1-0.1-0.3-0.3-0.5-0.5c-0.4,0.4-1,0.6-1.5,0.6c-1,0-1.6-0.7-1.6-1.5c0-0.7,0.4-1.2,1-1.5v0
	c-0.3-0.3-0.4-0.7-0.4-1.1c0-0.6,0.5-1.3,1.3-1.3c0.6,0,1.1,0.4,1.1,1.1c0,0.5-0.3,1-1.1,1.4v0c0.4,0.5,0.9,1.1,1.3,1.5
	c0.2-0.4,0.4-0.9,0.5-1.5h0.6c-0.1,0.8-0.4,1.5-0.7,1.9c0.3,0.3,0.5,0.6,0.9,0.9H136.3z M135.5,48.5c-0.3-0.3-0.9-1-1.5-1.6
	c-0.3,0.2-0.7,0.5-0.7,1.1c0,0.6,0.4,1.1,1.1,1.1C134.9,49,135.3,48.8,135.5,48.5 M133.9,45.3c0,0.4,0.2,0.7,0.4,0.9
	c0.5-0.3,0.9-0.6,0.9-1c0-0.3-0.2-0.7-0.6-0.7C134.2,44.6,133.9,44.9,133.9,45.3"/>
<polygon class="st0" points="145.4,49.5 145.4,44.1 148.5,44.1 148.5,44.9 146.4,44.9 146.4,46.4 148.3,46.4 148.3,47.2 146.4,47.2 
	146.4,49.5 "/>
<polygon class="st0" points="145.6,44.2 148.4,44.2 148.4,44.8 146.2,44.8 146.2,46.5 148.2,46.5 148.2,47 146.2,47 146.2,49.4 
	145.6,49.4 "/>
<path class="st0" d="M155,49.5L155,49.5c-0.1-0.2-0.2-0.6-0.4-1.3c-0.1-0.7-0.4-0.9-0.9-0.9h-0.5v2.3h-0.9v-5.4l0.1,0
	c0.3-0.1,0.8-0.1,1.3-0.1c0.8,0,1.2,0.1,1.6,0.5c0.3,0.3,0.5,0.7,0.5,1.1c0,0.6-0.3,1.1-0.8,1.3c0.3,0.2,0.5,0.5,0.6,1
	c0.2,0.7,0.3,1.2,0.4,1.4l0.1,0.2H155z M153.8,46.5c0.6,0,1-0.3,1-0.8c0-0.5-0.4-0.8-1.1-0.8c-0.2,0-0.4,0-0.5,0v1.6H153.8z"/>
<path class="st0" d="M152.4,44.3c0.3-0.1,0.8-0.1,1.3-0.1c0.7,0,1.2,0.1,1.5,0.4c0.3,0.2,0.4,0.6,0.4,1c0,0.7-0.4,1.1-1,1.3v0
	c0.4,0.1,0.6,0.5,0.8,1c0.2,0.7,0.3,1.2,0.4,1.4h-0.7c-0.1-0.1-0.2-0.6-0.3-1.2c-0.2-0.7-0.4-1-1-1h-0.6v2.3h-0.7V44.3z M153.1,46.6
	h0.7c0.7,0,1.2-0.4,1.2-1c0-0.7-0.5-1-1.2-1c-0.3,0-0.6,0-0.7,0.1V46.6z"/>
<path class="st0" d="M162.8,49.5l-0.6-1.6h-1.6l-0.5,1.6h-1l1.9-5.5h1l1.9,5.5H162.8z M162,47.1l-0.4-1.3c-0.1-0.2-0.1-0.3-0.1-0.5
	c0,0.2-0.1,0.3-0.1,0.5l-0.4,1.3H162z"/>
<path class="st0" d="M160.5,47.8l-0.5,1.6h-0.7l1.8-5.2h0.8l1.8,5.2h-0.7l-0.6-1.6H160.5z M162.2,47.2l-0.5-1.5
	c-0.1-0.3-0.2-0.6-0.3-0.9h0c-0.1,0.3-0.2,0.6-0.3,0.9l-0.5,1.5H162.2z"/>
<path class="st0" d="M170.7,49.5l-1.7-2.7c-0.3-0.5-0.5-0.9-0.7-1.2c0,0.5,0,1,0,1.6v2.4h-0.9v-5.5h0.9l1.7,2.7
	c0.2,0.4,0.5,0.8,0.6,1.1c0-0.5,0-1,0-1.5v-2.3h0.9v5.5H170.7z"/>
<path class="st0" d="M167.5,49.4v-5.2h0.7l1.7,2.6c0.4,0.6,0.7,1.2,0.9,1.7l0,0c-0.1-0.7-0.1-1.3-0.1-2.1v-2.2h0.6v5.2h-0.7
	l-1.7-2.6c-0.4-0.6-0.7-1.2-1-1.7l0,0c0,0.7,0.1,1.3,0.1,2.1v2.2H167.5z"/>
<path class="st0" d="M177.9,49.6c-1.6,0-2.7-1.1-2.7-2.8c0-1.7,1.2-2.9,2.9-2.9c0.8,0,1.2,0.2,1.3,0.2l0.1,0.1l-0.2,0.8l-0.1-0.1
	c-0.3-0.1-0.6-0.2-1-0.2c-1.2,0-1.9,0.8-1.9,2c0,1.2,0.7,2,1.9,2c0.4,0,0.8-0.1,1-0.2l0.2-0.1l0.2,0.8l-0.1,0.1
	C179.1,49.5,178.6,49.6,177.9,49.6"/>
<path class="st0" d="M179.3,49.2c-0.2,0.1-0.7,0.2-1.4,0.2c-1.5,0-2.6-0.9-2.6-2.6c0-1.6,1.1-2.7,2.7-2.7c0.6,0,1.1,0.1,1.2,0.2
	l-0.2,0.5c-0.3-0.1-0.6-0.2-1-0.2c-1.2,0-2,0.8-2,2.1c0,1.3,0.7,2.1,2,2.1c0.4,0,0.8-0.1,1.1-0.2L179.3,49.2z"/>
<path class="st0" d="M184.3,49.6c-0.5,0-1.1-0.1-1.4-0.4l-0.1-0.1l0.3-0.8l0.2,0.1c0.3,0.2,0.7,0.3,1.1,0.3c0.6,0,0.9-0.3,0.9-0.7
	c0-0.4-0.1-0.6-0.9-0.9c-1-0.4-1.5-0.9-1.5-1.6c0-0.9,0.7-1.6,1.8-1.6c0.6,0,1,0.2,1.2,0.3l0.1,0.1l-0.3,0.8l-0.1-0.1
	c-0.2-0.1-0.5-0.2-0.9-0.2c-0.6,0-0.8,0.3-0.8,0.6c0,0.4,0.2,0.6,0.9,0.9c1,0.4,1.4,0.9,1.4,1.7C186.3,48.7,185.7,49.6,184.3,49.6"
	/>
<path class="st0" d="M183.1,48.6c0.3,0.2,0.7,0.3,1.2,0.3c0.7,0,1.1-0.4,1.1-0.9c0-0.5-0.3-0.8-1-1c-0.8-0.3-1.4-0.7-1.4-1.5
	c0-0.8,0.7-1.4,1.7-1.4c0.5,0,0.9,0.1,1.1,0.3l-0.2,0.5c-0.2-0.1-0.5-0.2-1-0.2c-0.7,0-1,0.4-1,0.8c0,0.5,0.3,0.7,1,1
	c0.9,0.3,1.3,0.8,1.3,1.5c0,0.8-0.6,1.5-1.8,1.5c-0.5,0-1.1-0.1-1.3-0.3L183.1,48.6z"/>
<path class="st0" d="M195.9,49.6c-0.5,0-0.8,0-1.1-0.1l-0.1,0v-5.4l0.1,0c0.3-0.1,0.8-0.1,1.3-0.1c0.7,0,1.2,0.1,1.5,0.4
	c0.3,0.2,0.5,0.6,0.5,1c0,0.5-0.3,0.9-0.7,1.1c0.4,0.2,0.9,0.6,0.9,1.3c0,0.4-0.2,0.8-0.5,1.1C197.4,49.4,196.8,49.6,195.9,49.6
	 M195.7,48.8c0.1,0,0.3,0,0.4,0c0.4,0,1.2-0.1,1.2-0.9c0-0.8-0.8-0.9-1.2-0.9h-0.4V48.8z M196.1,46.3c0.6,0,1-0.3,1-0.7
	c0-0.2,0-0.7-1-0.7c-0.2,0-0.3,0-0.5,0v1.4H196.1z"/>
<path class="st0" d="M194.8,44.3c0.3-0.1,0.8-0.1,1.2-0.1c0.7,0,1.1,0.1,1.4,0.4c0.3,0.2,0.4,0.5,0.4,0.9c0,0.5-0.3,0.9-0.9,1.1v0
	c0.5,0.1,1.1,0.5,1.1,1.3c0,0.4-0.2,0.8-0.4,1c-0.4,0.3-1,0.5-1.8,0.5c-0.5,0-0.8,0-1-0.1V44.3z M195.5,46.4h0.6
	c0.7,0,1.1-0.4,1.1-0.9c0-0.6-0.5-0.8-1.1-0.8c-0.3,0-0.5,0-0.6,0V46.4z M195.5,48.9c0.1,0,0.3,0,0.6,0c0.7,0,1.3-0.3,1.3-1
	c0-0.7-0.6-1-1.3-1h-0.6V48.9z"/>
<path class="st0" d="M204,49.6c-0.7,0-2-0.3-2-2.4v-3.2h1v3.2c0,1,0.4,1.5,1.1,1.5c0.7,0,1.1-0.5,1.1-1.5v-3.2h1v3.2
	C206.1,48.7,205.3,49.6,204,49.6"/>
<path class="st0" d="M202.8,44.2v3.1c0,1.2,0.5,1.7,1.2,1.7c0.8,0,1.3-0.5,1.3-1.7v-3.1h0.7v3c0,1.6-0.8,2.3-2,2.3
	c-1.1,0-1.9-0.6-1.9-2.2v-3.1H202.8z"/>
<path class="st0" d="M211.2,49.5l-1.8-5.5h1l0.8,2.7c0.2,0.5,0.3,1,0.4,1.5c0.1-0.4,0.3-0.9,0.5-1.5l0.9-2.7h1l-2,5.5H211.2z"/>
<path class="st0" d="M211.3,49.4l-1.7-5.2h0.7l0.8,2.6c0.2,0.7,0.4,1.3,0.6,1.9h0c0.1-0.6,0.4-1.3,0.6-1.9l0.9-2.6h0.7l-1.9,5.2
	H211.3z"/>
<polygon class="st0" points="217.5,49.5 217.5,44.1 220.5,44.1 220.5,44.9 218.4,44.9 218.4,46.3 220.4,46.3 220.4,47.1 218.4,47.1 
	218.4,48.7 220.7,48.7 220.7,49.5 "/>
<polygon class="st0" points="220.3,47 218.3,47 218.3,48.8 220.5,48.8 220.5,49.4 217.6,49.4 217.6,44.2 220.4,44.2 220.4,44.8 
	218.3,44.8 218.3,46.4 220.3,46.4 "/>
<path class="st0" d="M226.3,49.6c-0.7,0-2-0.3-2-2.4v-3.2h1v3.2c0,1,0.4,1.5,1.1,1.5c0.7,0,1.1-0.5,1.1-1.5v-3.2h1v3.2
	C228.4,48.7,227.7,49.6,226.3,49.6"/>
<path class="st0" d="M225.1,44.2v3.1c0,1.2,0.5,1.7,1.2,1.7c0.8,0,1.3-0.5,1.3-1.7v-3.1h0.7v3c0,1.6-0.8,2.3-2,2.3
	c-1.1,0-1.9-0.6-1.9-2.2v-3.1H225.1z"/>
<path class="st0" d="M235.2,49.5L235.2,49.5c-0.1-0.2-0.2-0.6-0.4-1.3c-0.1-0.7-0.4-0.9-0.9-0.9h-0.5v2.3h-0.9v-5.4l0.1,0
	c0.3-0.1,0.8-0.1,1.3-0.1c0.8,0,1.2,0.1,1.6,0.5c0.3,0.3,0.5,0.7,0.5,1.1c0,0.6-0.3,1.1-0.8,1.3c0.3,0.2,0.5,0.5,0.6,1
	c0.2,0.7,0.3,1.2,0.4,1.4l0.1,0.2H235.2z M233.9,46.5c0.6,0,1-0.3,1-0.8c0-0.5-0.4-0.8-1.1-0.8c-0.2,0-0.4,0-0.5,0v1.6H233.9z"/>
<path class="st0" d="M232.6,44.3c0.3-0.1,0.8-0.1,1.3-0.1c0.7,0,1.2,0.1,1.5,0.4c0.3,0.2,0.4,0.6,0.4,1c0,0.7-0.4,1.1-1,1.3v0
	c0.4,0.1,0.6,0.5,0.8,1c0.2,0.7,0.3,1.2,0.4,1.4h-0.7c-0.1-0.1-0.2-0.6-0.3-1.2c-0.2-0.7-0.4-1-1-1h-0.6v2.3h-0.7V44.3z M233.2,46.6
	h0.7c0.7,0,1.2-0.4,1.2-1c0-0.7-0.5-1-1.2-1c-0.3,0-0.6,0-0.7,0.1V46.6z"/>
<path class="st0" d="M240.9,49.6c-0.5,0-1.1-0.1-1.4-0.4l-0.1-0.1l0.3-0.8l0.2,0.1c0.3,0.2,0.7,0.3,1.1,0.3c0.6,0,0.9-0.3,0.9-0.7
	c0-0.4-0.1-0.6-0.9-0.9c-1-0.4-1.5-0.9-1.5-1.6c0-0.9,0.7-1.6,1.8-1.6c0.6,0,1,0.2,1.2,0.3l0.1,0.1l-0.3,0.8l-0.1-0.1
	c-0.2-0.1-0.5-0.2-0.9-0.2c-0.6,0-0.8,0.3-0.8,0.6c0,0.4,0.2,0.6,0.9,0.9c1,0.4,1.4,0.9,1.4,1.7C242.8,48.7,242.3,49.6,240.9,49.6"
	/>
<path class="st0" d="M239.7,48.6c0.3,0.2,0.7,0.3,1.2,0.3c0.7,0,1.1-0.4,1.1-0.9c0-0.5-0.3-0.8-1-1c-0.8-0.3-1.4-0.7-1.4-1.5
	c0-0.8,0.7-1.4,1.7-1.4c0.5,0,0.9,0.1,1.1,0.3l-0.2,0.5c-0.2-0.1-0.5-0.2-1-0.2c-0.7,0-1,0.4-1,0.8c0,0.5,0.3,0.7,1,1
	c0.9,0.3,1.3,0.8,1.3,1.5c0,0.8-0.6,1.5-1.8,1.5c-0.5,0-1.1-0.1-1.3-0.3L239.7,48.6z"/>
<polygon class="st1" points="1.6,35.2 4,35.2 4,20.1 1.6,20.1 1.6,19.8 6.3,19.8 13.8,31.9 13.9,31.9 13.9,20.1 11.4,20.1 
	11.4,19.8 16.7,19.8 16.7,20.1 14.2,20.1 14.2,35.9 13.8,35.9 4.4,21 4.4,21 4.4,35.2 6.8,35.2 6.8,35.6 1.6,35.6 "/>
<polygon class="st1" points="17.9,35.2 20.3,35.2 20.3,20.1 17.9,20.1 17.9,19.8 25,19.8 25,20.1 22.5,20.1 22.5,35.2 25,35.2 
	25,35.6 17.9,35.6 "/>
<path class="st1" d="M40.6,35.6h-0.3c-0.1-0.1-0.2-0.2-0.4-0.3c-0.1-0.1-0.3-0.1-0.6-0.1c-0.2,0-0.5,0-0.7,0.1
	c-0.3,0.1-0.6,0.2-0.9,0.3c-0.3,0.1-0.7,0.2-1.1,0.3c-0.4,0.1-0.9,0.1-1.4,0.1c-0.9,0-1.8-0.2-2.7-0.5c-0.9-0.3-1.7-0.9-2.5-1.7
	c-0.7-0.7-1.3-1.6-1.8-2.6c-0.5-1-0.7-2.1-0.7-3.4c0-1.1,0.2-2.2,0.6-3.2c0.4-1,1-1.9,1.7-2.7c0.7-0.8,1.5-1.4,2.5-1.8
	c1-0.5,2-0.7,3.1-0.7c0.5,0,0.9,0,1.2,0.1c0.4,0.1,0.7,0.2,1,0.3c0.3,0.1,0.5,0.2,0.8,0.3c0.2,0.1,0.5,0.1,0.7,0.1
	c0.3,0,0.5,0,0.6-0.1c0.1-0.1,0.2-0.2,0.3-0.3h0.3v4.4h-0.2c-0.1-0.6-0.3-1.1-0.5-1.7c-0.2-0.5-0.5-1-0.9-1.5
	c-0.4-0.4-0.8-0.8-1.4-1c-0.6-0.3-1.3-0.4-2.1-0.4c-0.8,0-1.5,0.1-2,0.4c-0.6,0.2-1,0.6-1.4,1c-0.4,0.4-0.7,0.9-0.9,1.4
	c-0.2,0.5-0.4,1.1-0.5,1.7c-0.1,0.6-0.2,1.2-0.2,1.8c0,0.6-0.1,1.2-0.1,1.7c0,1.6,0.1,2.8,0.4,3.9c0.3,1,0.6,1.8,1.1,2.4
	c0.5,0.6,1,1,1.6,1.2c0.6,0.2,1.3,0.4,2.1,0.4c1,0,1.8-0.1,2.4-0.4c0.6-0.3,1.1-0.6,1.5-1.1c0.4-0.5,0.7-1,0.8-1.5
	c0.2-0.6,0.4-1.1,0.5-1.7h0.2V35.6z"/>
<path class="st1" d="M43.3,27.6c0-1.2,0.2-2.3,0.7-3.3c0.5-1,1.1-1.9,1.8-2.6c0.7-0.7,1.6-1.3,2.5-1.7c0.9-0.4,1.8-0.6,2.7-0.6
	c1,0,1.9,0.2,2.9,0.6c0.9,0.4,1.7,1,2.5,1.7c0.7,0.7,1.3,1.6,1.7,2.6c0.4,1,0.7,2.1,0.7,3.3c0,1-0.2,2-0.6,3c-0.4,1-0.9,1.9-1.6,2.6
	c-0.7,0.8-1.5,1.4-2.4,1.9c-0.9,0.5-1.9,0.7-3,0.7c-1.1,0-2.1-0.2-3.1-0.7c-0.9-0.5-1.8-1.1-2.4-1.8c-0.7-0.8-1.2-1.6-1.6-2.6
	C43.4,29.7,43.3,28.7,43.3,27.6 M45.8,27.6c0,1.3,0.1,2.5,0.3,3.5c0.2,1,0.5,1.8,0.9,2.5c0.4,0.7,0.9,1.2,1.6,1.5
	c0.7,0.3,1.5,0.5,2.4,0.5c0.9,0,1.7-0.2,2.4-0.5c0.7-0.3,1.2-0.8,1.6-1.5c0.4-0.7,0.7-1.5,0.9-2.5c0.2-1,0.3-2.2,0.3-3.5
	c0-1-0.1-2-0.2-3c-0.1-1-0.4-1.8-0.8-2.6c-0.4-0.7-0.9-1.3-1.6-1.8c-0.7-0.4-1.5-0.7-2.6-0.7s-2,0.2-2.6,0.7c-0.7,0.4-1.2,1-1.6,1.8
	c-0.4,0.7-0.6,1.6-0.8,2.6C45.9,25.6,45.8,26.6,45.8,27.6"/>
<path class="st1" d="M60.9,35.2h2.5V20.1h-2.5v-0.3H68v0.3h-2.5v15.2h3.9c1.3,0,2.3-0.4,3.1-1.2c0.7-0.8,1.3-1.9,1.6-3.3h0.2v4.9
	H60.9V35.2z"/>
<path class="st1" d="M75.4,35.2h2l6-15.9h0.5l6,15.9h2v0.3H85v-0.3h2.5l-2.3-6.2H80l-2.3,6.2h2.5v0.3h-4.8V35.2z M82.6,22.3
	l-2.4,6.5H85L82.6,22.3z"/>
<path class="st1" d="M93.5,30.8h0.2c0.2,0.8,0.4,1.5,0.6,2c0.3,0.5,0.5,1,0.9,1.4c0.3,0.4,0.6,0.6,1,0.8c0.3,0.2,0.7,0.3,1,0.4
	c0.3,0.1,0.7,0.1,1,0.2c0.3,0,0.6,0,0.9,0c0.8,0,1.4-0.1,1.9-0.4c0.5-0.2,0.9-0.5,1.2-0.9c0.3-0.4,0.5-0.8,0.6-1.2
	c0.1-0.4,0.2-0.8,0.2-1.2c0-0.5-0.1-1-0.3-1.3c-0.2-0.4-0.4-0.7-0.7-0.9c-0.3-0.3-0.6-0.5-1-0.6c-0.3-0.2-0.7-0.3-1-0.4l-2.6-0.8
	c-1.2-0.4-2.1-0.9-2.7-1.5c-0.6-0.6-0.9-1.4-0.9-2.4c0-0.7,0.1-1.3,0.4-1.9c0.2-0.6,0.6-1.1,1-1.5c0.4-0.4,0.9-0.7,1.5-1
	c0.6-0.2,1.3-0.4,2-0.4c0.5,0,1,0,1.3,0.1c0.3,0.1,0.6,0.2,0.9,0.3c0.3,0.1,0.5,0.2,0.7,0.3c0.2,0.1,0.4,0.1,0.6,0.1
	c0.2,0,0.3,0,0.4-0.1c0.1-0.1,0.2-0.2,0.3-0.4h0.3v4h-0.3c-0.1-0.5-0.2-1-0.5-1.5c-0.2-0.5-0.5-0.9-0.8-1.3
	c-0.3-0.4-0.8-0.7-1.2-0.9c-0.5-0.2-1-0.3-1.7-0.3c-0.4,0-0.7,0-1.2,0.1c-0.4,0.1-0.8,0.3-1.2,0.5c-0.4,0.2-0.7,0.5-0.9,0.9
	c-0.2,0.4-0.4,0.9-0.4,1.5c0,0.5,0.1,0.9,0.3,1.2c0.2,0.3,0.4,0.6,0.7,0.8c0.3,0.2,0.6,0.4,1,0.6c0.4,0.2,0.8,0.3,1.1,0.4l2.7,0.8
	c0.3,0.1,0.6,0.2,1.1,0.4c0.4,0.1,0.8,0.4,1.3,0.7c0.4,0.3,0.8,0.7,1,1.2c0.3,0.5,0.4,1.1,0.4,1.9c0,0.7-0.1,1.4-0.4,2
	c-0.3,0.6-0.6,1.2-1.1,1.7c-0.5,0.5-1.1,0.9-1.8,1.2c-0.7,0.3-1.5,0.4-2.4,0.4c-0.3,0-0.6,0-0.8,0c-0.2,0-0.5,0-0.7-0.1
	c-0.2,0-0.4-0.1-0.6-0.1c-0.2,0-0.4-0.1-0.7-0.2c-0.3-0.1-0.6-0.2-1-0.3c-0.3-0.1-0.6-0.2-0.9-0.2c-0.2,0-0.4,0-0.5,0.1
	c-0.1,0.1-0.2,0.2-0.2,0.4h-0.3V30.8z"/>
<path class="st1" d="M113.4,35.2h2.5V20.1h-2.5v-0.3h7.1v0.3h-2.5v15.2h3.9c1.3,0,2.3-0.4,3.1-1.2c0.7-0.8,1.3-1.9,1.6-3.3h0.2v4.9
	h-13.5V35.2z"/>
<path class="st1" d="M127.9,35.2h2l6-15.9h0.5l6,15.9h2v0.3h-6.8v-0.3h2.5l-2.3-6.2h-5.1l-2.3,6.2h2.5v0.3h-4.8V35.2z M135.2,22.3
	l-2.4,6.5h4.9L135.2,22.3z"/>
<path class="st1" d="M146.1,30.8h0.2c0.2,0.8,0.4,1.5,0.6,2c0.3,0.5,0.5,1,0.9,1.4c0.3,0.4,0.6,0.6,1,0.8c0.3,0.2,0.7,0.3,1,0.4
	c0.3,0.1,0.7,0.1,1,0.2c0.3,0,0.6,0,0.9,0c0.8,0,1.4-0.1,1.9-0.4c0.5-0.2,0.9-0.5,1.2-0.9c0.3-0.4,0.5-0.8,0.6-1.2
	c0.1-0.4,0.2-0.8,0.2-1.2c0-0.5-0.1-1-0.3-1.3c-0.2-0.4-0.4-0.7-0.7-0.9c-0.3-0.3-0.6-0.5-1-0.6c-0.3-0.2-0.7-0.3-1-0.4l-2.6-0.8
	c-1.2-0.4-2.1-0.9-2.7-1.5c-0.6-0.6-0.9-1.4-0.9-2.4c0-0.7,0.1-1.3,0.4-1.9c0.2-0.6,0.6-1.1,1-1.5c0.4-0.4,0.9-0.7,1.5-1
	c0.6-0.2,1.3-0.4,2-0.4c0.5,0,1,0,1.3,0.1c0.3,0.1,0.6,0.2,0.9,0.3c0.3,0.1,0.5,0.2,0.7,0.3c0.2,0.1,0.4,0.1,0.6,0.1
	c0.2,0,0.3,0,0.4-0.1c0.1-0.1,0.2-0.2,0.3-0.4h0.3v4h-0.3c-0.1-0.5-0.2-1-0.5-1.5c-0.2-0.5-0.5-0.9-0.8-1.3
	c-0.3-0.4-0.8-0.7-1.2-0.9c-0.5-0.2-1-0.3-1.7-0.3c-0.4,0-0.7,0-1.2,0.1c-0.4,0.1-0.8,0.3-1.2,0.5c-0.4,0.2-0.7,0.5-0.9,0.9
	c-0.2,0.4-0.4,0.9-0.4,1.5c0,0.5,0.1,0.9,0.3,1.2c0.2,0.3,0.4,0.6,0.7,0.8c0.3,0.2,0.6,0.4,1,0.6c0.4,0.2,0.8,0.3,1.1,0.4l2.7,0.8
	c0.3,0.1,0.6,0.2,1.1,0.4c0.4,0.1,0.8,0.4,1.3,0.7c0.4,0.3,0.8,0.7,1,1.2c0.3,0.5,0.4,1.1,0.4,1.9c0,0.7-0.1,1.4-0.4,2
	c-0.3,0.6-0.6,1.2-1.1,1.7c-0.5,0.5-1.1,0.9-1.8,1.2c-0.7,0.3-1.5,0.4-2.4,0.4c-0.3,0-0.6,0-0.8,0c-0.2,0-0.5,0-0.7-0.1
	c-0.2,0-0.4-0.1-0.6-0.1c-0.2,0-0.4-0.1-0.7-0.2c-0.3-0.1-0.6-0.2-1-0.3c-0.3-0.1-0.6-0.2-0.9-0.2c-0.2,0-0.4,0-0.5,0.1
	c-0.1,0.1-0.2,0.2-0.2,0.4h-0.3V30.8z"/>
<path class="st1" d="M174.1,35.6h-0.3c-0.1-0.1-0.2-0.2-0.4-0.3c-0.1-0.1-0.3-0.1-0.6-0.1c-0.2,0-0.5,0-0.7,0.1
	c-0.3,0.1-0.6,0.2-0.9,0.3c-0.3,0.1-0.7,0.2-1.1,0.3c-0.4,0.1-0.9,0.1-1.4,0.1c-0.9,0-1.8-0.2-2.7-0.5c-0.9-0.3-1.7-0.9-2.5-1.7
	c-0.7-0.7-1.3-1.6-1.8-2.6c-0.5-1-0.7-2.1-0.7-3.4c0-1.1,0.2-2.2,0.6-3.2c0.4-1,1-1.9,1.7-2.7c0.7-0.8,1.5-1.4,2.5-1.8
	c1-0.5,2-0.7,3.1-0.7c0.5,0,0.9,0,1.2,0.1c0.4,0.1,0.7,0.2,1,0.3c0.3,0.1,0.5,0.2,0.8,0.3c0.2,0.1,0.5,0.1,0.7,0.1
	c0.3,0,0.5,0,0.6-0.1c0.1-0.1,0.2-0.2,0.3-0.3h0.3v4.4h-0.2c-0.1-0.6-0.3-1.1-0.5-1.7c-0.2-0.5-0.5-1-0.9-1.5
	c-0.4-0.4-0.8-0.8-1.4-1c-0.6-0.3-1.3-0.4-2.1-0.4c-0.8,0-1.5,0.1-2,0.4c-0.6,0.2-1,0.6-1.4,1c-0.4,0.4-0.7,0.9-0.9,1.4
	c-0.2,0.5-0.4,1.1-0.5,1.7c-0.1,0.6-0.2,1.2-0.2,1.8c0,0.6-0.1,1.2-0.1,1.7c0,1.6,0.1,2.8,0.4,3.9c0.3,1,0.6,1.8,1.1,2.4
	c0.5,0.6,1,1,1.6,1.2c0.6,0.2,1.3,0.4,2.1,0.4c1,0,1.8-0.1,2.4-0.4c0.6-0.3,1.1-0.6,1.5-1.1c0.4-0.5,0.7-1,0.8-1.5
	c0.2-0.6,0.4-1.1,0.5-1.7h0.2V35.6z"/>
<path class="st1" d="M176.7,27.6c0-1.2,0.2-2.3,0.7-3.3c0.5-1,1.1-1.9,1.8-2.6c0.7-0.7,1.6-1.3,2.5-1.7c0.9-0.4,1.8-0.6,2.7-0.6
	c1,0,1.9,0.2,2.9,0.6c0.9,0.4,1.7,1,2.5,1.7c0.7,0.7,1.3,1.6,1.7,2.6c0.4,1,0.7,2.1,0.7,3.3c0,1-0.2,2-0.6,3c-0.4,1-0.9,1.9-1.6,2.6
	c-0.7,0.8-1.5,1.4-2.5,1.9c-0.9,0.5-1.9,0.7-3,0.7c-1.1,0-2.1-0.2-3.1-0.7c-0.9-0.5-1.8-1.1-2.4-1.8c-0.7-0.8-1.2-1.6-1.6-2.6
	C176.9,29.7,176.7,28.7,176.7,27.6 M179.3,27.6c0,1.3,0.1,2.5,0.3,3.5c0.2,1,0.5,1.8,0.9,2.5c0.4,0.7,0.9,1.2,1.6,1.5
	c0.7,0.3,1.5,0.5,2.4,0.5c0.9,0,1.7-0.2,2.4-0.5c0.7-0.3,1.2-0.8,1.6-1.5c0.4-0.7,0.7-1.5,0.9-2.5c0.2-1,0.3-2.2,0.3-3.5
	c0-1-0.1-2-0.2-3c-0.1-1-0.4-1.8-0.8-2.6c-0.4-0.7-0.9-1.3-1.6-1.8c-0.7-0.4-1.5-0.7-2.6-0.7c-1.1,0-2,0.2-2.6,0.7
	c-0.7,0.4-1.2,1-1.6,1.8c-0.4,0.7-0.6,1.6-0.8,2.6C179.3,25.6,179.3,26.6,179.3,27.6"/>
<polygon class="st1" points="194.2,35.2 196.7,35.2 196.7,20.1 194.2,20.1 194.2,19.8 199.2,19.8 203.3,31.7 203.4,31.7 207.5,19.8 
	212.4,19.8 212.4,20.1 209.9,20.1 209.9,35.2 212.4,35.2 212.4,35.6 205.2,35.6 205.2,35.2 207.7,35.2 207.7,20.2 207.6,20.2 
	202.3,35.6 197.1,20.4 197,20.4 197,35.2 199.5,35.2 199.5,35.6 194.2,35.6 "/>
<path class="st1" d="M213.6,35.2h2.5V20.1h-2.5v-0.3h3.9c0.2,0,0.4,0,0.7,0c0.2,0,0.5,0,0.7,0c0.2,0,0.5,0,0.7,0c0.2,0,0.4,0,0.6,0
	c1.1,0,2,0.1,2.7,0.4c0.7,0.3,1.2,0.6,1.6,1c0.4,0.4,0.7,0.8,0.8,1.2c0.1,0.4,0.2,0.8,0.2,1.2c0,0.5-0.1,0.9-0.3,1.4
	c-0.2,0.4-0.5,0.8-0.9,1.1c-0.4,0.3-0.8,0.6-1.3,0.8c-0.5,0.2-1,0.3-1.5,0.4v0c0.5,0,1.1,0.2,1.6,0.3c0.6,0.2,1.1,0.4,1.5,0.8
	c0.5,0.3,0.8,0.7,1.1,1.2c0.3,0.5,0.4,1.1,0.4,1.7c0,0.7-0.1,1.3-0.4,1.8c-0.3,0.6-0.6,1-1.1,1.4c-0.5,0.4-1.1,0.7-1.9,0.9
	c-0.8,0.2-1.7,0.3-2.7,0.3c-0.2,0-0.4,0-0.6,0c-0.2,0-0.4,0-0.6,0c-0.2,0-0.5,0-0.7,0c-0.2,0-0.5,0-0.8,0h-3.9V35.2z M218.3,26.9h2
	c0.4,0,0.8-0.1,1.1-0.2c0.3-0.1,0.6-0.3,0.9-0.5c0.2-0.3,0.4-0.6,0.6-1.1c0.1-0.4,0.2-1,0.2-1.7c0-0.8-0.1-1.4-0.3-1.9
	c-0.2-0.5-0.5-0.8-0.8-1.1c-0.3-0.2-0.7-0.4-1.1-0.5c-0.4-0.1-0.8-0.1-1.2-0.1c-0.3,0-0.5,0-0.8,0c-0.3,0-0.5,0-0.7,0.1V26.9z
	 M218.3,35.2c0.2,0,0.4,0,0.6,0.1c0.2,0,0.5,0,0.9,0c0.7,0,1.3-0.1,1.8-0.2c0.5-0.1,0.9-0.4,1.2-0.7c0.3-0.3,0.6-0.8,0.7-1.3
	c0.1-0.5,0.2-1.2,0.2-2.1c0-1.2-0.3-2.1-0.8-2.8c-0.5-0.7-1.2-1-2.2-1h-2.4V35.2z"/>
<path class="st1" d="M228.4,35.2h2.5V20.1h-2.5v-0.3h12.7v3.8h-0.2c-0.2-0.6-0.4-1.1-0.6-1.5c-0.2-0.4-0.5-0.8-0.8-1.1
	c-0.3-0.3-0.7-0.5-1.1-0.7c-0.4-0.1-0.9-0.2-1.6-0.2h-3.7v6.9h1.4c0.5,0,0.9,0,1.2-0.1c0.3-0.1,0.6-0.3,0.9-0.5
	c0.2-0.2,0.5-0.6,0.6-1c0.2-0.4,0.3-1,0.5-1.6h0.2v6.9h-0.2c-0.1-0.4-0.2-0.8-0.3-1.2c-0.1-0.4-0.3-0.8-0.5-1.1
	c-0.2-0.3-0.5-0.6-0.8-0.7c-0.3-0.2-0.8-0.3-1.3-0.3h-1.8v8h4.2c0.8,0,1.5-0.2,2-0.5c0.5-0.3,1-0.8,1.3-1.2c0.3-0.5,0.6-1,0.8-1.5
	c0.2-0.5,0.3-0.9,0.3-1.3h0.2v4.9h-13.5V35.2z"/>
<path class="st1" d="M245,30.8h0.2c0.2,0.8,0.4,1.5,0.6,2c0.3,0.5,0.5,1,0.9,1.4c0.3,0.4,0.6,0.6,1,0.8c0.3,0.2,0.7,0.3,1,0.4
	c0.3,0.1,0.7,0.1,1,0.2c0.3,0,0.6,0,0.9,0c0.8,0,1.4-0.1,1.9-0.4c0.5-0.2,0.9-0.5,1.2-0.9c0.3-0.4,0.5-0.8,0.6-1.2
	c0.1-0.4,0.2-0.8,0.2-1.2c0-0.5-0.1-1-0.3-1.3c-0.2-0.4-0.4-0.7-0.7-0.9c-0.3-0.3-0.6-0.5-1-0.6c-0.3-0.2-0.7-0.3-1-0.4l-2.6-0.8
	c-1.2-0.4-2.1-0.9-2.7-1.5c-0.6-0.6-0.9-1.4-0.9-2.4c0-0.7,0.1-1.3,0.4-1.9c0.2-0.6,0.6-1.1,1-1.5c0.4-0.4,0.9-0.7,1.5-1
	c0.6-0.2,1.3-0.4,2-0.4c0.5,0,0.9,0,1.3,0.1c0.3,0.1,0.6,0.2,0.9,0.3c0.3,0.1,0.5,0.2,0.7,0.3c0.2,0.1,0.4,0.1,0.6,0.1
	c0.2,0,0.3,0,0.4-0.1c0.1-0.1,0.2-0.2,0.3-0.4h0.3v4h-0.3c-0.1-0.5-0.2-1-0.5-1.5c-0.2-0.5-0.5-0.9-0.8-1.3
	c-0.3-0.4-0.8-0.7-1.2-0.9c-0.5-0.2-1-0.3-1.7-0.3c-0.4,0-0.7,0-1.2,0.1c-0.4,0.1-0.8,0.3-1.2,0.5c-0.4,0.2-0.7,0.5-0.9,0.9
	c-0.2,0.4-0.4,0.9-0.4,1.5c0,0.5,0.1,0.9,0.3,1.2c0.2,0.3,0.4,0.6,0.7,0.8c0.3,0.2,0.6,0.4,1,0.6c0.4,0.2,0.8,0.3,1.1,0.4l2.7,0.8
	c0.3,0.1,0.6,0.2,1.1,0.4c0.4,0.1,0.8,0.4,1.3,0.7c0.4,0.3,0.8,0.7,1,1.2c0.3,0.5,0.4,1.1,0.4,1.9c0,0.7-0.1,1.4-0.4,2
	c-0.3,0.6-0.6,1.2-1.1,1.7c-0.5,0.5-1.1,0.9-1.8,1.2c-0.7,0.3-1.5,0.4-2.4,0.4c-0.3,0-0.6,0-0.8,0c-0.2,0-0.5,0-0.7-0.1
	c-0.2,0-0.4-0.1-0.6-0.1c-0.2,0-0.4-0.1-0.7-0.2c-0.3-0.1-0.6-0.2-1-0.3c-0.3-0.1-0.6-0.2-0.9-0.2c-0.2,0-0.4,0-0.5,0.1
	c-0.1,0.1-0.2,0.2-0.2,0.4H245V30.8z"/>
</svg>
