<?xml version="1.0" encoding="utf-8"?>
<!-- Generator: Adobe Illustrator 15.0.2, SVG Export Plug-In . SVG Version: 6.00 Build 0)  -->
<!DOCTYPE svg PUBLIC "-//W3C//DTD SVG 1.1//EN" "http://www.w3.org/Graphics/SVG/1.1/DTD/svg11.dtd">
<svg version="1.1" id="Calque_1" xmlns="http://www.w3.org/2000/svg" xmlns:xlink="http://www.w3.org/1999/xlink" x="0px" y="0px"
	 width="329.883px" height="158.001px" viewBox="0 0 329.883 158.001" enable-background="new 0 0 329.883 158.001"
	 xml:space="preserve">
<path fill="#FFFFFF" d="M231.61,72.853c-0.1-0.042-0.194-0.077-0.293-0.118C231.408,72.813,231.506,72.853,231.61,72.853"/>
<path fill="#FFFFFF" d="M223.358,58.303l-1.283,0.6c1.697,3.623,3.051,7.601,4.163,11.792c0.538,0.215,1.076,0.43,1.618,0.65
	C226.683,66.713,225.23,62.307,223.358,58.303"/>
<path fill="#FFFFFF" d="M219.572,50.525l-1.36,0.395c1.635,5.694,2.942,11.796,3.94,18.133c0.498,0.191,1.018,0.416,1.518,0.61
	C222.648,62.977,221.294,56.532,219.572,50.525"/>
<path fill="#FFFFFF" d="M215.208,43.241l-1.401,0.208c1.137,7.674,2.218,15.598,3.032,23.667c0.494,0.178,0.988,0.356,1.484,0.539
	C217.497,59.317,216.379,51.142,215.208,43.241"/>
<path fill="#FFFFFF" d="M210.209,36.46l-1.414,0.051c0.365,9.529,1.16,18.977,1.802,28.415c0.487,0.164,0.958,0.303,1.449,0.471
	C211.398,55.753,210.578,46.131,210.209,36.46"/>
<path fill="#FFFFFF" d="M204.423,40.535c0-3.405,0.07-6.848,0.247-10.337l-1.411-0.074c-0.18,3.517-0.253,6.983-0.253,10.411
	c0.001,7.546,0.352,14.89,0.694,22.148c0.47,0.144,0.964,0.32,1.436,0.467C204.786,55.716,204.421,48.22,204.423,40.535"/>
<path fill="#FFFFFF" d="M197.18,46.473c0-7.07,0.294-14.351,1.244-21.988l-1.4-0.176c-0.966,7.714-1.257,15.053-1.257,22.164
	c0,4.768,0.139,9.417,0.293,14.02c0.469,0.128,0.956,0.278,1.428,0.41C197.327,56.156,197.18,51.37,197.18,46.473"/>
<path fill="#FFFFFF" d="M188.812,49.255c0-9.407,0.497-19.228,2.501-29.926l-1.392-0.26c-2.023,10.811-2.523,20.73-2.523,30.186
	c0,3.076,0.058,6.091,0.129,9.083c0.468,0.109,0.955,0.241,1.425,0.353C188.875,55.579,188.812,52.446,188.812,49.255"/>
<path fill="#FFFFFF" d="M183.951,14.757l-1.375-0.33c-3.19,13.289-3.866,25.078-3.863,36.174c0,2.001,0.057,3.923,0.09,5.883
	c0.464,0.087,0.952,0.204,1.418,0.296c-0.036-2.057-0.094-4.083-0.094-6.179C180.127,39.563,180.796,27.905,183.951,14.757"/>
<path fill="#FFFFFF" d="M171.268,51.304c0-12.257,0.831-25.322,5.168-40.516l-1.359-0.392c-4.386,15.358-5.223,28.586-5.223,40.907
	c0,1.262,0.038,2.468,0.052,3.712c0.475,0.068,0.938,0.123,1.417,0.196C171.309,53.904,171.268,52.629,171.268,51.304"/>
<path fill="#FFFFFF" d="M168.847,7.435l-1.343-0.439c-5.575,17.13-6.572,31.529-6.569,44.811c0,0.732,0.025,1.426,0.03,2.151
	c0.474,0.045,0.938,0.08,1.416,0.128c-0.006-0.766-0.032-1.505-0.032-2.279C162.349,38.595,163.333,24.388,168.847,7.435"/>
<path fill="#FFFFFF" d="M161.278,4.719l-1.333-0.477c-6.736,18.685-7.896,34.077-7.894,48.156c0,0.318,0.013,0.617,0.014,0.935
	c0.468,0.021,0.942,0.047,1.415,0.072c-0.001-0.341-0.015-0.665-0.015-1.006C153.467,38.396,154.609,23.225,161.278,4.719"/>
<path fill="#FFFFFF" d="M153.808,2.661l-1.321-0.516c-7.841,20.028-9.193,36.271-9.2,51.014c0.464-0.005,0.948,0.007,1.417,0.006
	C144.71,38.508,146.042,22.505,153.808,2.661"/>
<path fill="#FFFFFF" d="M146.52,1.276l-1.305-0.548c-8.751,20.877-10.398,37.666-10.466,52.789c0.474-0.032,0.938-0.071,1.418-0.098
	C136.245,38.418,137.876,21.917,146.52,1.276"/>
<path fill="#FFFFFF" d="M139.512,0.58l-1.292-0.571c-9.583,21.565-11.576,38.844-11.732,54.292c0.461-0.059,0.951-0.101,1.418-0.156
	C128.075,38.854,130.055,21.881,139.512,0.58"/>
<path fill="#FFFFFF" d="M132.859,0.599L131.577,0c-10.33,22.133-12.697,39.845-12.96,55.578c0.475-0.091,0.941-0.187,1.425-0.274
	C120.33,39.769,122.687,22.41,132.859,0.599"/>
<path fill="#FFFFFF" d="M126.652,1.34l-1.273-0.619c-10.965,22.51-13.732,40.549-14.146,56.495c0.465-0.12,0.95-0.232,1.425-0.349
	C113.103,41.155,115.868,23.49,126.652,1.34"/>
<path fill="#FFFFFF" d="M120.974,2.824l-1.267-0.635c-11.467,22.681-14.69,40.95-15.301,57.029c0.47-0.154,0.955-0.304,1.437-0.456
	C106.498,42.957,109.72,25.098,120.974,2.824"/>
<path fill="#FFFFFF" d="M99.724,60.862c0.933-15.785,4.636-33.668,16.188-55.787l-1.253-0.657
	c-11.81,22.595-15.506,40.922-16.384,57.025C98.758,61.25,99.22,61.054,99.724,60.862"/>
<path fill="#FFFFFF" d="M75.151,153.013v-13.539c0.556-0.016,1.072-0.031,1.542-0.047c0.407-0.008,0.814-0.022,1.214-0.031
	c0.399,0,0.697-0.008,0.885-0.008c0.666,0,1.3,0.063,1.895,0.188c0.596,0.118,1.12,0.337,1.567,0.65
	c0.407,0.282,0.728,0.65,0.947,1.104c0.227,0.462,0.336,1.041,0.336,1.746c0,0.76-0.188,1.417-0.572,1.981
	c-0.376,0.563-0.9,0.994-1.566,1.276c-0.352,0.148-0.767,0.258-1.245,0.337c-0.47,0.069-0.995,0.109-1.566,0.109h-2.725v6.232
	H75.151z M78.627,146.067c0.25,0,0.509-0.008,0.776-0.016c0.273-0.016,0.54-0.047,0.798-0.086c0.259-0.04,0.5-0.095,0.744-0.173
	c0.235-0.069,0.438-0.172,0.619-0.297c0.376-0.266,0.681-0.627,0.893-1.065c0.22-0.446,0.329-0.9,0.329-1.378
	c0-0.571-0.101-1.041-0.305-1.426c-0.204-0.376-0.486-0.681-0.838-0.907c-0.353-0.22-0.767-0.376-1.253-0.479
	c-0.477-0.094-1.002-0.141-1.558-0.141c-0.109,0-0.321,0.008-0.642,0.008c-0.313,0.008-0.65,0.024-1.002,0.031
	c-0.407,0.016-0.854,0.023-1.324,0.023v5.904H78.627z"/>
<path fill="#FFFFFF" d="M92.926,152.974c-0.149,0.063-0.329,0.126-0.533,0.173c-0.204,0.047-0.4,0.07-0.587,0.07
	c-0.125,0-0.258-0.016-0.399-0.047c-0.141-0.04-0.273-0.117-0.399-0.235c-0.118-0.125-0.22-0.298-0.306-0.524
	c-0.079-0.22-0.117-0.517-0.117-0.885c-0.11,0.164-0.266,0.345-0.47,0.532c-0.203,0.188-0.454,0.368-0.751,0.548
	c-0.306,0.181-0.65,0.321-1.042,0.438s-0.846,0.173-1.347,0.173c-0.524,0-0.995-0.079-1.401-0.243
	c-0.407-0.164-0.744-0.375-1.01-0.642c-0.266-0.267-0.462-0.572-0.603-0.924c-0.133-0.36-0.203-0.713-0.203-1.081
	c0-0.61,0.156-1.112,0.469-1.496c0.313-0.391,0.775-0.712,1.386-0.97c0.65-0.274,1.409-0.462,2.271-0.572
	c0.861-0.109,1.777-0.165,2.74-0.165v-0.712c0-0.266-0.007-0.556-0.023-0.861c-0.008-0.306-0.063-0.604-0.141-0.885
	c-0.11-0.384-0.352-0.682-0.736-0.908c-0.376-0.228-0.854-0.337-1.426-0.337c-0.705,0-1.37,0.109-2.004,0.328
	c-0.626,0.212-1.206,0.486-1.722,0.814v-0.774c0.438-0.259,0.971-0.493,1.604-0.705c0.627-0.211,1.3-0.313,2.021-0.313
	c0.533,0,0.979,0.056,1.339,0.164c0.361,0.11,0.658,0.252,0.893,0.439c0.235,0.18,0.422,0.399,0.548,0.649
	c0.133,0.251,0.219,0.524,0.258,0.822c0.039,0.313,0.063,0.635,0.071,0.971c0.008,0.33,0.008,0.643,0.008,0.925v4.808
	c0,0.109,0.008,0.22,0.016,0.345c0,0.125,0.023,0.219,0.046,0.282c0.032,0.086,0.094,0.156,0.196,0.219
	c0.103,0.055,0.228,0.086,0.376,0.086c0.298,0,0.626-0.078,0.979-0.242V152.974z M86.873,152.504c0.462,0,0.877-0.055,1.237-0.157
	c0.36-0.102,0.673-0.227,0.947-0.383c0.266-0.156,0.509-0.329,0.713-0.517c0.203-0.196,0.375-0.376,0.524-0.549
	c0.11-0.141,0.196-0.32,0.243-0.556c0.055-0.228,0.086-0.485,0.086-0.774v-1.81c-0.462,0-0.923,0.016-1.394,0.055
	c-0.47,0.031-0.917,0.079-1.347,0.142c-0.431,0.062-0.831,0.141-1.199,0.234c-0.375,0.095-0.688,0.211-0.947,0.345
	c-0.438,0.22-0.751,0.462-0.947,0.744c-0.196,0.273-0.297,0.634-0.297,1.064c0,0.368,0.07,0.682,0.211,0.947
	c0.148,0.267,0.329,0.494,0.556,0.674c0.219,0.18,0.478,0.321,0.76,0.407C86.309,152.457,86.591,152.504,86.873,152.504"/>
<path fill="#FFFFFF" d="M94.836,153.013v-10.038h0.634v2.114c0.118-0.298,0.313-0.579,0.572-0.854c0.25-0.274,0.556-0.518,0.9-0.736
	c0.344-0.211,0.736-0.384,1.159-0.517c0.431-0.126,0.885-0.196,1.355-0.196c0.775,0,1.449,0.148,2.021,0.432
	c0.572,0.281,1.01,0.751,1.323,1.409c0.07,0.133,0.125,0.297,0.165,0.493c0.039,0.195,0.07,0.407,0.102,0.634
	c0.023,0.22,0.047,0.446,0.062,0.674c0.008,0.219,0.016,0.438,0.016,0.643v5.942h-0.65v-5.864c0-0.407-0.023-0.83-0.07-1.276
	c-0.047-0.438-0.157-0.814-0.313-1.128c-0.251-0.478-0.595-0.807-1.042-1.011c-0.447-0.195-0.956-0.289-1.527-0.289
	c-0.313,0-0.642,0.039-0.979,0.133c-0.337,0.086-0.666,0.212-0.987,0.384c-0.321,0.173-0.619,0.384-0.9,0.635
	c-0.274,0.25-0.517,0.54-0.72,0.885c-0.125,0.211-0.227,0.47-0.329,0.76c-0.094,0.297-0.141,0.665-0.141,1.111v5.661H94.836z"/>
<path fill="#FFFFFF" d="M115.713,147.939c0,0.767-0.125,1.472-0.384,2.122c-0.259,0.649-0.619,1.213-1.081,1.691
	c-0.462,0.47-1.003,0.846-1.629,1.104c-0.626,0.267-1.3,0.399-2.036,0.399c-0.744,0-1.426-0.126-2.044-0.384
	s-1.15-0.627-1.589-1.088c-0.447-0.47-0.783-1.025-1.034-1.676c-0.243-0.643-0.36-1.348-0.36-2.107c0-0.728,0.126-1.417,0.376-2.051
	c0.251-0.643,0.595-1.198,1.05-1.684c0.446-0.485,0.979-0.861,1.605-1.128c0.626-0.273,1.308-0.406,2.06-0.406
	c0.759,0,1.449,0.133,2.075,0.391c0.627,0.267,1.159,0.635,1.597,1.104c0.447,0.47,0.783,1.018,1.034,1.645
	C115.595,146.506,115.713,147.195,115.713,147.939 M115.047,147.963c0-0.541-0.085-1.089-0.258-1.629
	c-0.172-0.54-0.43-1.033-0.791-1.465c-0.361-0.438-0.822-0.79-1.378-1.073c-0.556-0.273-1.214-0.414-1.973-0.414
	c-0.775,0-1.441,0.141-2.004,0.423c-0.564,0.289-1.026,0.649-1.378,1.096c-0.353,0.438-0.61,0.932-0.783,1.48
	c-0.172,0.556-0.258,1.096-0.258,1.62c0,0.572,0.102,1.137,0.29,1.692s0.47,1.049,0.846,1.479c0.367,0.423,0.83,0.768,1.386,1.034
	c0.548,0.266,1.183,0.398,1.903,0.398s1.354-0.141,1.903-0.415c0.548-0.281,1.01-0.642,1.378-1.088
	c0.36-0.454,0.643-0.947,0.83-1.504C114.945,149.051,115.047,148.503,115.047,147.963"/>
<path fill="#FFFFFF" d="M118.281,153.013v-10.038h0.634v2.341c0.094-0.329,0.243-0.642,0.446-0.938
	c0.204-0.299,0.447-0.564,0.737-0.8c0.281-0.242,0.61-0.431,0.97-0.563c0.369-0.134,0.768-0.203,1.206-0.203
	c0.392,0,0.752,0.038,1.088,0.109c0.329,0.078,0.658,0.227,0.963,0.438l-0.462,0.673c-0.258-0.219-0.533-0.36-0.814-0.431
	c-0.29-0.062-0.564-0.102-0.838-0.102c-0.438,0-0.822,0.095-1.159,0.266c-0.344,0.181-0.642,0.408-0.9,0.682
	c-0.259,0.282-0.47,0.588-0.643,0.916c-0.165,0.337-0.29,0.65-0.376,0.947c-0.093,0.407-0.149,0.846-0.172,1.316
	c-0.016,0.47-0.032,0.908-0.032,1.315v4.071H118.281z"/>
<path fill="#FFFFFF" d="M133.84,152.974c-0.149,0.063-0.33,0.126-0.533,0.173c-0.204,0.047-0.399,0.07-0.587,0.07
	c-0.126,0-0.259-0.016-0.4-0.047c-0.141-0.04-0.273-0.117-0.399-0.235c-0.117-0.125-0.22-0.298-0.306-0.524
	c-0.079-0.22-0.117-0.517-0.117-0.885c-0.11,0.164-0.266,0.345-0.47,0.532c-0.203,0.188-0.454,0.368-0.751,0.548
	c-0.306,0.181-0.65,0.321-1.042,0.438s-0.846,0.173-1.347,0.173c-0.524,0-0.994-0.079-1.401-0.243s-0.744-0.375-1.01-0.642
	c-0.266-0.267-0.462-0.572-0.603-0.924c-0.133-0.36-0.203-0.713-0.203-1.081c0-0.61,0.156-1.112,0.469-1.496
	c0.314-0.391,0.775-0.712,1.387-0.97c0.65-0.274,1.409-0.462,2.271-0.572c0.861-0.109,1.777-0.165,2.74-0.165v-0.712
	c0-0.266-0.007-0.556-0.023-0.861c-0.008-0.306-0.062-0.604-0.141-0.885c-0.11-0.384-0.352-0.682-0.736-0.908
	c-0.375-0.228-0.853-0.337-1.425-0.337c-0.705,0-1.371,0.109-2.005,0.328c-0.626,0.212-1.206,0.486-1.722,0.814v-0.774
	c0.438-0.259,0.97-0.493,1.605-0.705c0.626-0.211,1.3-0.313,2.02-0.313c0.533,0,0.979,0.056,1.339,0.164
	c0.361,0.11,0.658,0.252,0.893,0.439c0.235,0.18,0.423,0.399,0.548,0.649c0.133,0.251,0.219,0.524,0.259,0.822
	c0.039,0.313,0.063,0.635,0.07,0.971c0.008,0.33,0.008,0.643,0.008,0.925v4.808c0,0.109,0.007,0.22,0.016,0.345
	c0,0.125,0.023,0.219,0.046,0.282c0.031,0.086,0.094,0.156,0.196,0.219c0.102,0.055,0.227,0.086,0.376,0.086
	c0.297,0,0.626-0.078,0.979-0.242V152.974z M127.787,152.504c0.462,0,0.877-0.055,1.237-0.157c0.36-0.102,0.673-0.227,0.947-0.383
	c0.266-0.156,0.509-0.329,0.713-0.517c0.203-0.196,0.376-0.376,0.524-0.549c0.11-0.141,0.196-0.32,0.243-0.556
	c0.054-0.228,0.085-0.485,0.085-0.774v-1.81c-0.461,0-0.923,0.016-1.393,0.055c-0.47,0.031-0.917,0.079-1.347,0.142
	c-0.43,0.062-0.83,0.141-1.198,0.234c-0.376,0.095-0.689,0.211-0.948,0.345c-0.438,0.22-0.751,0.462-0.947,0.744
	c-0.196,0.273-0.297,0.634-0.297,1.064c0,0.368,0.07,0.682,0.211,0.947c0.149,0.267,0.329,0.494,0.556,0.674
	c0.219,0.18,0.477,0.321,0.76,0.407C127.223,152.457,127.505,152.504,127.787,152.504"/>
<path fill="#FFFFFF" d="M135.751,153.013v-10.038h0.634v2.114c0.133-0.298,0.321-0.579,0.571-0.854
	c0.243-0.274,0.524-0.518,0.854-0.736c0.321-0.211,0.689-0.384,1.088-0.517c0.4-0.126,0.838-0.196,1.315-0.196
	c0.893,0,1.629,0.212,2.208,0.627c0.572,0.415,0.955,1.018,1.127,1.824c0.133-0.29,0.329-0.579,0.572-0.869
	c0.243-0.29,0.533-0.556,0.877-0.791c0.337-0.242,0.72-0.431,1.136-0.571c0.423-0.141,0.885-0.22,1.386-0.22
	c0.775,0,1.417,0.148,1.934,0.432c0.517,0.281,0.924,0.751,1.222,1.409c0.055,0.133,0.11,0.297,0.157,0.493
	c0.047,0.195,0.086,0.407,0.11,0.634c0.031,0.22,0.047,0.446,0.063,0.674c0.016,0.219,0.023,0.438,0.023,0.643v5.942h-0.657v-5.889
	c0-0.407-0.024-0.821-0.079-1.261c-0.055-0.43-0.157-0.806-0.305-1.119c-0.235-0.462-0.549-0.791-0.948-0.994
	c-0.399-0.204-0.893-0.306-1.48-0.306c-0.619,0-1.245,0.164-1.856,0.509c-0.618,0.337-1.127,0.847-1.519,1.527
	c-0.126,0.211-0.235,0.47-0.329,0.76c-0.094,0.297-0.141,0.665-0.141,1.111v5.661h-0.65v-5.889c0-0.407-0.031-0.821-0.086-1.261
	c-0.055-0.43-0.157-0.806-0.321-1.119c-0.25-0.462-0.564-0.791-0.963-0.994c-0.391-0.204-0.869-0.306-1.441-0.306
	c-0.626,0-1.245,0.164-1.863,0.509c-0.619,0.337-1.127,0.847-1.519,1.527c-0.125,0.211-0.227,0.47-0.329,0.76
	c-0.094,0.297-0.141,0.665-0.141,1.111v5.661H135.751z"/>
<path fill="#FFFFFF" d="M154.677,140.711c-0.204,0-0.368-0.062-0.494-0.18c-0.117-0.125-0.18-0.282-0.18-0.47
	s0.055-0.353,0.172-0.479c0.117-0.133,0.282-0.195,0.501-0.195c0.188,0,0.344,0.07,0.462,0.204c0.125,0.133,0.188,0.289,0.188,0.47
	c0,0.188-0.062,0.345-0.196,0.47C155.006,140.649,154.849,140.711,154.677,140.711 M154.348,142.974h0.673v10.039h-0.673V142.974z"
	/>
<path fill="#FFFFFF" d="M165.75,150.978c-0.408,0.736-0.956,1.292-1.66,1.676c-0.697,0.391-1.394,0.587-2.083,0.587
	c-1.417,0-2.529-0.415-3.352-1.237c-0.822-0.822-1.229-2.066-1.229-3.735c0-0.947,0.156-1.77,0.461-2.45
	c0.313-0.689,0.72-1.246,1.222-1.684c0.509-0.432,1.073-0.76,1.707-0.964c0.627-0.211,1.261-0.321,1.903-0.321
	c0.759,0,1.44,0.079,2.051,0.235c0.619,0.156,1.151,0.321,1.613,0.502v14.415h-0.634V150.978z M165.733,144.031
	c-0.352-0.133-0.752-0.266-1.183-0.384c-0.438-0.125-1.01-0.188-1.73-0.188c-0.626,0-1.222,0.095-1.793,0.29
	c-0.571,0.188-1.073,0.478-1.519,0.861c-0.438,0.392-0.791,0.877-1.049,1.479c-0.259,0.595-0.383,1.309-0.383,2.138
	c0,0.759,0.094,1.418,0.297,1.974c0.195,0.556,0.462,1.01,0.798,1.362c0.345,0.352,0.744,0.619,1.214,0.783
	c0.469,0.172,0.979,0.258,1.535,0.258c0.344,0,0.673-0.046,0.994-0.141c0.313-0.094,0.619-0.227,0.9-0.399
	c0.29-0.172,0.548-0.368,0.775-0.587c0.234-0.228,0.431-0.479,0.587-0.744c0.164-0.273,0.297-0.596,0.399-0.971
	c0.102-0.368,0.157-0.713,0.157-1.026V144.031z"/>
<path fill="#FFFFFF" d="M177.973,148.715c0,0.532-0.039,1.025-0.118,1.486c-0.07,0.463-0.195,0.861-0.375,1.207
	c-0.298,0.563-0.767,1.018-1.41,1.347c-0.65,0.337-1.402,0.501-2.271,0.501c-0.861,0-1.612-0.148-2.271-0.446
	c-0.658-0.298-1.127-0.752-1.401-1.362c-0.149-0.345-0.25-0.736-0.321-1.19c-0.071-0.454-0.102-0.972-0.102-1.542v-5.74h0.649v5.661
	c0,0.571,0.032,1.081,0.102,1.527c0.071,0.446,0.196,0.821,0.384,1.12c0.259,0.43,0.658,0.759,1.199,0.986
	c0.532,0.227,1.143,0.336,1.816,0.336c0.666,0,1.261-0.125,1.786-0.375c0.524-0.252,0.916-0.587,1.19-1.011
	c0.188-0.297,0.321-0.673,0.391-1.127c0.063-0.454,0.102-0.94,0.102-1.457v-5.661h0.65V148.715z"/>
<path fill="#FFFFFF" d="M189.35,151.894c-0.109,0.094-0.266,0.219-0.477,0.368c-0.211,0.148-0.485,0.297-0.814,0.446
	c-0.337,0.148-0.729,0.282-1.19,0.384c-0.461,0.109-1.002,0.164-1.612,0.164c-0.799,0-1.504-0.141-2.115-0.438
	c-0.61-0.289-1.12-0.681-1.527-1.167c-0.407-0.493-0.712-1.057-0.916-1.699c-0.203-0.649-0.305-1.33-0.305-2.052
	c0-0.728,0.117-1.417,0.353-2.043c0.234-0.635,0.571-1.183,1.002-1.645c0.422-0.454,0.939-0.823,1.542-1.089
	c0.603-0.259,1.284-0.392,2.028-0.392c0.705,0,1.338,0.109,1.895,0.321c0.556,0.219,1.025,0.524,1.417,0.908
	c0.384,0.384,0.681,0.861,0.885,1.418c0.204,0.556,0.305,1.166,0.305,1.832v0.25c0,0.078-0.007,0.157-0.023,0.235h-8.715
	c0,0.735,0.094,1.401,0.274,2.005c0.188,0.61,0.447,1.12,0.798,1.55c0.345,0.432,0.775,0.76,1.292,0.994
	c0.517,0.243,1.112,0.36,1.793,0.36c0.564,0,1.065-0.047,1.496-0.14c0.423-0.095,0.799-0.221,1.119-0.377
	c0.321-0.156,0.596-0.329,0.831-0.509c0.243-0.188,0.462-0.36,0.665-0.524V151.894z M189.084,147.046
	c0-0.485-0.079-0.955-0.243-1.394s-0.408-0.83-0.721-1.159c-0.321-0.336-0.712-0.603-1.182-0.799
	c-0.47-0.195-1.01-0.297-1.621-0.297s-1.167,0.094-1.66,0.282c-0.494,0.179-0.916,0.431-1.277,0.76
	c-0.352,0.328-0.626,0.712-0.83,1.158c-0.204,0.454-0.336,0.932-0.392,1.448H189.084z"/>
<rect x="197.455" y="147.057" fill="#FFFFFF" width="6.688" height="0.65"/>
<polygon fill="#FFFFFF" points="212.873,153.013 212.873,139.475 213.562,139.475 213.562,152.363 220.57,152.363 220.57,153.013 
	"/>
<path fill="#FFFFFF" d="M230.405,152.974c-0.148,0.063-0.329,0.126-0.532,0.173c-0.204,0.047-0.399,0.07-0.587,0.07
	c-0.126,0-0.259-0.016-0.4-0.047c-0.14-0.04-0.273-0.117-0.399-0.235c-0.117-0.125-0.219-0.298-0.306-0.524
	c-0.079-0.22-0.117-0.517-0.117-0.885c-0.109,0.164-0.266,0.345-0.47,0.532c-0.204,0.188-0.455,0.368-0.752,0.548
	c-0.306,0.181-0.65,0.321-1.042,0.438s-0.845,0.173-1.347,0.173c-0.524,0-0.994-0.079-1.402-0.243
	c-0.407-0.164-0.743-0.375-1.01-0.642c-0.266-0.267-0.461-0.572-0.603-0.924c-0.133-0.36-0.203-0.713-0.203-1.081
	c0-0.61,0.156-1.112,0.469-1.496c0.314-0.391,0.775-0.712,1.387-0.97c0.649-0.274,1.409-0.462,2.271-0.572
	c0.861-0.109,1.777-0.165,2.74-0.165v-0.712c0-0.266-0.007-0.556-0.023-0.861c-0.008-0.306-0.062-0.604-0.141-0.885
	c-0.109-0.384-0.352-0.682-0.736-0.908c-0.375-0.228-0.854-0.337-1.425-0.337c-0.706,0-1.371,0.109-2.005,0.328
	c-0.626,0.212-1.206,0.486-1.722,0.814v-0.774c0.438-0.259,0.97-0.493,1.604-0.705c0.627-0.211,1.3-0.313,2.02-0.313
	c0.533,0,0.979,0.056,1.339,0.164c0.36,0.11,0.658,0.252,0.893,0.439c0.235,0.18,0.423,0.399,0.548,0.649
	c0.133,0.251,0.219,0.524,0.259,0.822c0.039,0.313,0.062,0.635,0.07,0.971c0.008,0.33,0.008,0.643,0.008,0.925v4.808
	c0,0.109,0.007,0.22,0.016,0.345c0,0.125,0.023,0.219,0.046,0.282c0.031,0.086,0.094,0.156,0.196,0.219
	c0.102,0.055,0.227,0.086,0.376,0.086c0.297,0,0.626-0.078,0.979-0.242V152.974z M224.353,152.504c0.462,0,0.877-0.055,1.237-0.157
	c0.36-0.102,0.673-0.227,0.947-0.383c0.267-0.156,0.509-0.329,0.713-0.517c0.203-0.196,0.375-0.376,0.524-0.549
	c0.11-0.141,0.195-0.32,0.243-0.556c0.054-0.228,0.085-0.485,0.085-0.774v-1.81c-0.461,0-0.923,0.016-1.393,0.055
	c-0.47,0.031-0.917,0.079-1.347,0.142c-0.431,0.062-0.83,0.141-1.198,0.234c-0.376,0.095-0.689,0.211-0.948,0.345
	c-0.438,0.22-0.751,0.462-0.947,0.744c-0.196,0.273-0.297,0.634-0.297,1.064c0,0.368,0.07,0.682,0.211,0.947
	c0.149,0.267,0.328,0.494,0.556,0.674c0.219,0.18,0.477,0.321,0.76,0.407C223.788,152.457,224.071,152.504,224.353,152.504"/>
<path fill="#FFFFFF" d="M246.286,152.903c-0.814,0.234-1.762,0.353-2.866,0.353c-1.183,0-2.193-0.203-3.045-0.618
	c-0.846-0.416-1.543-0.956-2.091-1.621c-0.557-0.666-0.956-1.417-1.214-2.248c-0.258-0.837-0.392-1.684-0.392-2.537
	c0-1.072,0.188-2.043,0.564-2.913c0.375-0.869,0.877-1.604,1.503-2.207c0.634-0.604,1.363-1.073,2.193-1.395
	c0.83-0.329,1.707-0.493,2.623-0.493c0.626,0,1.19,0.047,1.684,0.126c0.493,0.078,0.94,0.171,1.323,0.281
	c0.384,0.109,0.713,0.228,0.979,0.337c0.267,0.117,0.47,0.211,0.619,0.274v0.838c-0.188-0.095-0.423-0.212-0.697-0.345
	c-0.283-0.142-0.611-0.268-0.979-0.392c-0.376-0.117-0.814-0.22-1.308-0.306c-0.493-0.078-1.057-0.117-1.676-0.117
	c-0.861,0-1.652,0.148-2.396,0.445c-0.736,0.298-1.386,0.721-1.935,1.277c-0.548,0.548-0.986,1.214-1.299,1.988
	c-0.321,0.783-0.486,1.652-0.486,2.624c0,0.877,0.141,1.707,0.423,2.474c0.274,0.768,0.673,1.434,1.197,2.005
	c0.525,0.571,1.16,1.018,1.919,1.339c0.751,0.329,1.613,0.493,2.576,0.493c0.58,0,1.136-0.055,1.66-0.156
	c0.517-0.103,0.995-0.22,1.425-0.368c0.423-0.141,0.799-0.29,1.104-0.454c0.313-0.165,0.556-0.298,0.712-0.407v0.854
	C247.797,152.379,247.093,152.661,246.286,152.903"/>
<path fill="#FFFFFF" d="M251.179,140.711c-0.203,0-0.368-0.062-0.493-0.18c-0.118-0.125-0.18-0.282-0.18-0.47
	s0.054-0.353,0.171-0.479c0.118-0.133,0.282-0.195,0.501-0.195c0.189,0,0.345,0.07,0.462,0.204c0.126,0.133,0.188,0.289,0.188,0.47
	c0,0.188-0.062,0.345-0.196,0.47C251.508,140.649,251.352,140.711,251.179,140.711 M250.851,142.974h0.673v10.039h-0.673V142.974z"
	/>
<path fill="#FFFFFF" d="M258.76,153.115c-0.368,0.094-0.752,0.141-1.151,0.141c-0.705,0-1.276-0.18-1.708-0.548
	c-0.438-0.369-0.696-0.861-0.774-1.487c-0.024-0.243-0.047-0.518-0.047-0.815c-0.007-0.298-0.016-0.579-0.016-0.854v-5.951h-1.792
	v-0.627h1.792l0.04-2.567l0.611-0.267v2.834h3.407v0.627h-3.407v5.661c0,0.314,0.007,0.658,0.016,1.034
	c0.007,0.376,0.039,0.697,0.11,0.963c0.078,0.399,0.259,0.721,0.517,0.972c0.267,0.25,0.681,0.376,1.237,0.376
	c0.353,0,0.689-0.04,1.019-0.11c0.321-0.078,0.673-0.212,1.057-0.399v0.689C259.441,152.911,259.135,153.021,258.76,153.115"/>
<path fill="#FFFFFF" d="M269.565,151.894c-0.11,0.094-0.267,0.219-0.478,0.368c-0.212,0.148-0.485,0.298-0.814,0.446
	c-0.337,0.148-0.729,0.281-1.189,0.384c-0.463,0.108-1.003,0.164-1.613,0.164c-0.799,0-1.505-0.141-2.114-0.438
	c-0.611-0.289-1.12-0.681-1.527-1.167c-0.407-0.493-0.713-1.057-0.916-1.699c-0.204-0.649-0.306-1.331-0.306-2.051
	c0-0.729,0.117-1.418,0.353-2.045c0.234-0.634,0.571-1.182,1.002-1.644c0.423-0.455,0.94-0.822,1.543-1.089
	c0.603-0.258,1.284-0.392,2.027-0.392c0.705,0,1.34,0.109,1.896,0.321c0.556,0.22,1.026,0.524,1.417,0.908
	c0.384,0.384,0.682,0.861,0.885,1.417c0.204,0.556,0.306,1.168,0.306,1.832v0.252c0,0.078-0.008,0.156-0.023,0.234h-8.715
	c0,0.735,0.094,1.401,0.274,2.004c0.188,0.611,0.447,1.12,0.798,1.552c0.345,0.43,0.775,0.759,1.293,0.994
	c0.517,0.242,1.111,0.36,1.792,0.36c0.564,0,1.065-0.047,1.496-0.142c0.423-0.094,0.798-0.219,1.119-0.376
	c0.322-0.156,0.596-0.329,0.83-0.509c0.243-0.188,0.463-0.359,0.666-0.524V151.894z M269.299,147.046
	c0-0.485-0.078-0.955-0.242-1.394s-0.407-0.83-0.72-1.159c-0.322-0.337-0.714-0.603-1.184-0.798c-0.47-0.196-1.01-0.299-1.621-0.299
	c-0.61,0-1.166,0.095-1.659,0.283c-0.494,0.18-0.916,0.431-1.276,0.759c-0.353,0.329-0.626,0.713-0.831,1.159
	c-0.203,0.454-0.337,0.932-0.392,1.448H269.299z M263.865,141.08c0.517-0.479,0.963-0.972,1.339-1.488
	c0.384-0.517,0.743-1.12,1.081-1.809l0.9,0.407c-0.438,0.728-0.909,1.37-1.418,1.91c-0.509,0.549-1.002,1.002-1.479,1.386
	L263.865,141.08z"/>
<path fill="#FFFFFF" d="M285.172,153.013v-2.059c-0.157,0.289-0.354,0.563-0.596,0.837c-0.242,0.274-0.532,0.518-0.853,0.736
	c-0.329,0.211-0.689,0.384-1.089,0.517c-0.399,0.126-0.838,0.196-1.315,0.196c-0.854,0-1.574-0.142-2.146-0.407
	c-0.58-0.274-1.041-0.634-1.402-1.096c-0.353-0.454-0.603-0.987-0.752-1.598c-0.148-0.611-0.219-1.253-0.219-1.935
	c0-0.729,0.11-1.417,0.345-2.067c0.228-0.643,0.564-1.205,1.01-1.698c0.438-0.486,0.987-0.878,1.637-1.16
	c0.649-0.289,1.394-0.431,2.239-0.431c0.65,0,1.222,0.039,1.699,0.117c0.485,0.071,0.94,0.196,1.379,0.377v-5.341h0.649v15.011
	H285.172z M285.109,144.071c-0.438-0.244-0.909-0.4-1.426-0.479c-0.517-0.07-1.065-0.109-1.629-0.109
	c-0.774,0-1.448,0.125-2.021,0.376c-0.571,0.25-1.049,0.595-1.433,1.025c-0.392,0.439-0.673,0.94-0.869,1.52
	c-0.188,0.579-0.281,1.19-0.281,1.84c0,0.611,0.069,1.183,0.219,1.715c0.157,0.532,0.384,0.987,0.697,1.387
	c0.312,0.392,0.704,0.696,1.166,0.923c0.47,0.228,1.034,0.337,1.685,0.337c0.368,0,0.72-0.055,1.057-0.156
	c0.344-0.103,0.649-0.227,0.939-0.392c0.282-0.164,0.541-0.352,0.76-0.563c0.227-0.211,0.407-0.432,0.54-0.658
	c0.195-0.312,0.337-0.649,0.438-1.01s0.157-0.712,0.157-1.072V144.071z"/>
<path fill="#FFFFFF" d="M297.348,148.715c0,0.532-0.038,1.025-0.117,1.486c-0.07,0.463-0.195,0.861-0.376,1.207
	c-0.298,0.563-0.767,1.018-1.41,1.347c-0.649,0.337-1.4,0.501-2.27,0.501c-0.861,0-1.613-0.148-2.271-0.446
	c-0.657-0.298-1.127-0.752-1.401-1.362c-0.149-0.345-0.25-0.736-0.32-1.19c-0.071-0.454-0.103-0.972-0.103-1.542v-5.74h0.649v5.661
	c0,0.571,0.031,1.081,0.103,1.527c0.07,0.446,0.195,0.821,0.383,1.12c0.259,0.43,0.658,0.759,1.198,0.986
	c0.533,0.227,1.144,0.336,1.817,0.336c0.665,0,1.261-0.125,1.785-0.375c0.524-0.252,0.916-0.587,1.19-1.011
	c0.188-0.297,0.321-0.673,0.391-1.127c0.063-0.454,0.102-0.94,0.102-1.457v-5.661h0.65V148.715z"/>
<path fill="#FFFFFF" d="M309.759,153.013l-5.638-13.538h0.838c0.596,1.433,1.12,2.701,1.574,3.797
	c0.454,1.089,0.853,2.044,1.189,2.851c0.345,0.807,0.635,1.496,0.878,2.067c0.242,0.563,0.454,1.064,0.618,1.496
	c0.172,0.423,0.321,0.79,0.455,1.096c0.125,0.306,0.242,0.604,0.352,0.885c0.11-0.259,0.22-0.532,0.337-0.83
	s0.258-0.649,0.431-1.064c0.165-0.407,0.368-0.893,0.61-1.465c0.235-0.571,0.524-1.26,0.861-2.083
	c0.345-0.821,0.744-1.784,1.206-2.881c0.462-1.104,1.002-2.388,1.629-3.868h0.775l-5.646,13.538H309.759z"/>
<path fill="#FFFFFF" d="M317.935,140.711c-0.204,0-0.368-0.062-0.493-0.18c-0.118-0.125-0.181-0.282-0.181-0.47
	s0.055-0.353,0.173-0.479c0.116-0.133,0.281-0.195,0.501-0.195c0.188,0,0.344,0.07,0.462,0.204c0.125,0.133,0.188,0.289,0.188,0.47
	c0,0.188-0.062,0.345-0.195,0.47C318.264,140.649,318.106,140.711,317.935,140.711 M317.605,142.974h0.673v10.039h-0.673V142.974z"
	/>
<path fill="#FFFFFF" d="M321.575,153.013v-10.038h0.635v2.114c0.117-0.298,0.312-0.579,0.571-0.854
	c0.25-0.274,0.556-0.518,0.9-0.736c0.344-0.211,0.736-0.384,1.159-0.517c0.431-0.126,0.885-0.196,1.354-0.196
	c0.775,0,1.449,0.148,2.021,0.432c0.571,0.281,1.01,0.751,1.323,1.409c0.07,0.133,0.125,0.297,0.164,0.493
	c0.039,0.195,0.07,0.407,0.102,0.634c0.023,0.22,0.047,0.446,0.063,0.674c0.008,0.219,0.015,0.438,0.015,0.643v5.942h-0.649v-5.864
	c0-0.407-0.023-0.83-0.07-1.276c-0.047-0.438-0.157-0.814-0.313-1.128c-0.251-0.478-0.595-0.807-1.041-1.011
	c-0.446-0.195-0.955-0.289-1.527-0.289c-0.312,0-0.642,0.039-0.979,0.133c-0.337,0.086-0.666,0.212-0.987,0.384
	c-0.32,0.173-0.618,0.384-0.9,0.635c-0.273,0.25-0.517,0.54-0.72,0.885c-0.125,0.211-0.227,0.47-0.329,0.76
	c-0.094,0.297-0.142,0.665-0.142,1.111v5.661H321.575z"/>
<polygon fill="#FFFFFF" points="0,127.725 0,101.531 1.336,101.531 1.336,126.462 14.893,126.462 14.893,127.725 "/>
<polygon fill="#FFFFFF" points="36.201,127.725 21.664,127.725 21.664,101.531 35.496,101.531 35.496,102.786 23.045,102.786 
	23.045,113.544 34.82,113.544 34.82,114.844 23.045,114.844 23.045,126.462 36.201,126.462 "/>
<path fill="#FFFFFF" d="M92.808,127.726l-4.685-7.21c-0.557-0.839-1.114-1.604-1.678-2.287c-0.564-0.683-1.106-1.217-1.633-1.611
	c-0.631-0.497-1.269-0.838-1.908-1.01c-0.646-0.17-1.367-0.252-2.153-0.252h-4.803v12.37h-1.381v-26.193
	c0.95-0.03,1.842-0.052,2.681-0.082c0.713-0.031,1.417-0.045,2.13-0.06c0.705-0.015,1.247-0.022,1.611-0.022
	c0.92,0,1.863,0.022,2.835,0.059c0.973,0.044,1.774,0.156,2.406,0.334c1.418,0.423,2.532,1.225,3.348,2.405
	c0.81,1.181,1.218,2.599,1.218,4.254c0,1.025-0.208,1.967-0.631,2.836c-0.416,0.868-0.958,1.567-1.611,2.086
	c-0.475,0.423-1.039,0.779-1.692,1.068c-0.661,0.291-1.411,0.498-2.25,0.624c0.371,0.081,0.683,0.186,0.95,0.319
	c0.26,0.134,0.587,0.372,0.98,0.706c0.268,0.268,0.602,0.646,1.01,1.144c0.401,0.505,0.742,0.951,1.002,1.344l5.947,9.177H92.808z
	 M81.737,113.975c0.765,0,1.559-0.044,2.384-0.133c0.824-0.097,1.566-0.283,2.227-0.572c0.839-0.424,1.544-1.032,2.123-1.834
	c0.579-0.802,0.869-1.819,0.869-3.052c0-1.313-0.334-2.435-1.002-3.37c-0.668-0.928-1.507-1.582-2.502-1.953
	c-0.289-0.104-0.631-0.179-1.024-0.23c-0.393-0.052-0.817-0.096-1.262-0.119c-0.446-0.029-0.898-0.044-1.358-0.044h-1.24
	c-0.342,0-0.795,0.007-1.359,0.022c-0.564,0.015-1.114,0.037-1.633,0.06c-0.661,0.029-1.329,0.052-2.012,0.082v11.144H81.737z"/>
<path fill="#FFFFFF" d="M121.836,124.064c0.891,0.653,2.02,1.277,3.385,1.871c1.366,0.586,3.052,0.884,5.042,0.884
	c0.973,0,1.886-0.111,2.74-0.334c0.854-0.223,1.604-0.579,2.249-1.062c0.639-0.489,1.144-1.113,1.515-1.871
	c0.364-0.764,0.55-1.67,0.55-2.724c0-1.388-0.468-2.495-1.396-3.327c-0.936-0.824-2.383-1.633-4.351-2.42l-1.931-0.75
	c-1.001-0.393-1.915-0.771-2.74-1.143c-0.831-0.364-1.537-0.81-2.13-1.322c-0.587-0.512-1.046-1.128-1.374-1.848
	c-0.334-0.72-0.498-1.619-0.498-2.695c0-1.893,0.698-3.407,2.086-4.551c1.396-1.143,3.275-1.715,5.635-1.715
	c1.708,0,3.148,0.193,4.313,0.587c1.173,0.401,2.087,0.75,2.74,1.069v1.61c-0.787-0.468-1.737-0.913-2.859-1.314
	c-1.113-0.409-2.472-0.616-4.076-0.616c-0.92,0-1.774,0.097-2.561,0.275c-0.787,0.186-1.463,0.482-2.027,0.891
	s-1.01,0.92-1.336,1.537c-0.333,0.616-0.498,1.359-0.498,2.228c0,0.861,0.164,1.597,0.476,2.205
	c0.312,0.601,0.742,1.106,1.277,1.515c0.542,0.409,1.158,0.765,1.856,1.062c0.69,0.305,1.432,0.602,2.228,0.891l2.36,0.906
	c0.921,0.364,1.767,0.75,2.54,1.158c0.771,0.409,1.44,0.883,1.989,1.418c0.55,0.542,0.98,1.173,1.284,1.894
	c0.297,0.72,0.453,1.551,0.453,2.502c0,1.366-0.275,2.517-0.809,3.444c-0.542,0.936-1.24,1.678-2.086,2.243
	c-0.854,0.571-1.804,0.972-2.836,1.226c-1.04,0.251-2.049,0.37-3.015,0.37c-1.893,0-3.519-0.26-4.885-0.786
	c-1.367-0.52-2.473-1.047-3.312-1.574V124.064z"/>
<polygon fill="#FFFFFF" points="152.321,127.725 152.321,102.786 143.263,102.786 143.263,101.531 162.759,101.531 162.759,102.786 
	153.702,102.786 153.702,127.725 "/>
<path fill="#FFFFFF" d="M218.42,116.893c0,0.683-0.015,1.396-0.06,2.146c-0.037,0.75-0.147,1.462-0.334,2.146
	c-0.29,1.002-0.735,1.923-1.336,2.777c-0.602,0.854-1.336,1.596-2.205,2.227c-0.868,0.631-1.863,1.121-2.992,1.477
	c-1.136,0.356-2.369,0.535-3.705,0.535c-1.47,0-2.806-0.2-4.001-0.594s-2.227-0.936-3.11-1.634c-0.877-0.697-1.596-1.507-2.146-2.42
	c-0.549-0.921-0.943-1.908-1.181-2.955c-0.134-0.58-0.215-1.188-0.26-1.834c-0.037-0.646-0.059-1.269-0.059-1.871v-15.362h1.381
	v15.362c0,0.527,0.015,1.083,0.037,1.67c0.03,0.594,0.082,1.113,0.163,1.559c0.364,2.071,1.344,3.72,2.933,4.945
	c1.589,1.217,3.653,1.834,6.207,1.834c2.384,0,4.351-0.565,5.888-1.678c1.537-1.114,2.554-2.577,3.051-4.396
	c0.156-0.602,0.252-1.262,0.297-1.982c0.037-0.728,0.06-1.389,0.06-1.99v-15.324h1.374V116.893z"/>
<path fill="#FFFFFF" d="M246.477,127.726l-4.685-7.21c-0.557-0.839-1.114-1.604-1.678-2.287c-0.564-0.683-1.107-1.217-1.634-1.611
	c-0.631-0.497-1.269-0.838-1.908-1.01c-0.646-0.17-1.366-0.252-2.153-0.252h-4.804v12.37h-1.381v-26.193
	c0.95-0.03,1.841-0.052,2.68-0.082c0.713-0.031,1.418-0.045,2.13-0.06c0.705-0.015,1.248-0.022,1.611-0.022
	c0.92,0,1.863,0.022,2.836,0.059c0.973,0.044,1.774,0.156,2.405,0.334c1.418,0.423,2.532,1.225,3.348,2.405
	c0.81,1.181,1.218,2.599,1.218,4.254c0,1.025-0.208,1.967-0.631,2.836c-0.417,0.868-0.958,1.567-1.612,2.086
	c-0.475,0.423-1.039,0.779-1.693,1.068c-0.66,0.291-1.41,0.498-2.249,0.624c0.371,0.081,0.683,0.186,0.95,0.319
	c0.26,0.134,0.586,0.372,0.98,0.706c0.268,0.268,0.602,0.646,1.01,1.144c0.4,0.505,0.742,0.951,1.001,1.344l5.948,9.177H246.477z
	 M235.407,113.975c0.765,0,1.559-0.044,2.383-0.133c0.824-0.097,1.566-0.283,2.228-0.572c0.838-0.424,1.544-1.032,2.123-1.834
	c0.579-0.802,0.869-1.819,0.869-3.052c0-1.313-0.334-2.435-1.002-3.37c-0.668-0.928-1.507-1.582-2.502-1.953
	c-0.289-0.104-0.631-0.179-1.024-0.23c-0.393-0.052-0.816-0.096-1.262-0.119c-0.445-0.029-0.898-0.044-1.358-0.044h-1.24
	c-0.342,0-0.795,0.007-1.359,0.022s-1.113,0.037-1.633,0.06c-0.661,0.029-1.329,0.052-2.012,0.082v11.144H235.407z"/>
<path fill="#FFFFFF" d="M302.175,127.725c-2.34-2.784-4.41-5.248-6.222-7.409c-1.812-2.153-3.408-4.046-4.789-5.687
	s-2.554-3.051-3.526-4.217c-0.973-1.166-1.781-2.146-2.442-2.932c-1.553-1.863-2.532-3.06-2.955-3.586v23.832h-1.381v-26.193h0.987
	c2.286,2.703,4.306,5.109,6.065,7.225c1.76,2.116,3.318,3.972,4.67,5.575s2.51,2.978,3.468,4.113
	c0.957,1.143,1.767,2.109,2.42,2.896c1.551,1.842,2.546,3.052,2.992,3.631v-23.439h1.381v26.193H302.175z"/>
<polygon fill="#FFFFFF" points="318.642,127.725 318.642,102.786 309.584,102.786 309.584,101.531 329.08,101.531 329.08,102.786 
	320.022,102.786 320.022,127.725 "/>
<rect x="101.115" y="101.532" fill="#FFFFFF" width="13.832" height="1.254"/>
<rect x="101.115" y="113.292" fill="#FFFFFF" width="13.832" height="1.255"/>
<rect x="101.115" y="126.471" fill="#FFFFFF" width="13.832" height="1.255"/>
<path fill="#FFFFFF" d="M188.685,127.725h1.575l-11.033-26.193h-1.144l-10.907,26.193h1.456l9.457-23.039
	c0.083-0.214,0.175-0.447,0.232-0.6c0.186-0.468,0.29-0.72,0.319-0.742l9.276,22.538L188.685,127.725z"/>
<path fill="#FFFFFF" d="M273.264,127.725h1.574l-11.033-26.193h-1.143l-10.907,26.193h1.456l9.457-23.039
	c0.083-0.214,0.174-0.447,0.231-0.6c0.186-0.468,0.29-0.72,0.319-0.742l9.276,22.538L273.264,127.725z"/>
<path fill="#FFFFFF" d="M28.245,84.536v5.45h38.489c-2.844,4.1-5.442,8.579-7.73,13.331c-2.587,5.36-4.872,10.997-6.791,16.754
	c-1.933,5.812-3.423,11.614-4.429,17.239c-1.035,5.695-1.561,11.153-1.561,16.223v0.68h5.362v-0.68
	c0-4.899,0.575-10.39,1.709-16.317c1.14-5.958,2.773-12.042,4.854-18.088c2.07-6.039,4.62-11.964,7.579-17.612
	c2.947-5.623,6.348-10.647,10.112-14.934l0.168-0.192v-1.854H28.245z"/>
</svg>
