<?xml version="1.0" encoding="utf-8"?>
<!-- Generator: Adobe Illustrator 20.0.0, SVG Export Plug-In . SVG Version: 6.00 Build 0)  -->
<svg version="1.1" id="Calque_1" xmlns="http://www.w3.org/2000/svg" xmlns:xlink="http://www.w3.org/1999/xlink" x="0px" y="0px"
	 viewBox="0 0 179.9 36.5" style="enable-background:new 0 0 179.9 36.5;" xml:space="preserve">
<style type="text/css">
	.st0{fill:#BBAE94;}
	.st1{fill:#575756;}
</style>
<path class="st0" d="M57.2,7.9L57.2,7.9c-0.1-0.2-0.2-0.5-0.4-1.2c-0.1-0.6-0.3-0.8-0.9-0.8h-0.5v2h-0.8V3.1l0.1,0
	C55.1,3.1,55.6,3,56,3c0.7,0,1.1,0.1,1.4,0.4c0.3,0.2,0.4,0.6,0.4,1c0,0.5-0.3,1-0.8,1.2c0.3,0.2,0.5,0.5,0.6,0.9
	c0.1,0.6,0.3,1.1,0.4,1.3l0.1,0.1H57.2z M56.1,5.3c0.6,0,1-0.3,1-0.8c0-0.6-0.5-0.8-1-0.8c-0.2,0-0.4,0-0.5,0v1.5H56.1z"/>
<path class="st0" d="M54.8,3.2c0.3-0.1,0.7-0.1,1.2-0.1c0.6,0,1.1,0.1,1.4,0.4c0.2,0.2,0.4,0.5,0.4,0.9c0,0.6-0.4,1-0.9,1.2v0
	c0.4,0.1,0.6,0.5,0.7,0.9c0.2,0.7,0.3,1.1,0.4,1.3h-0.6c-0.1-0.1-0.2-0.5-0.3-1.1c-0.1-0.6-0.4-0.9-0.9-0.9h-0.6v2h-0.6V3.2z
	 M55.4,5.4h0.6c0.6,0,1.1-0.4,1.1-0.9c0-0.6-0.4-0.9-1.1-0.9c-0.3,0-0.5,0-0.6,0.1V5.4z"/>
<polygon class="st0" points="61.3,7.9 61.3,3.1 64,3.1 64,3.8 62.1,3.8 62.1,5.1 63.9,5.1 63.9,5.7 62.1,5.7 62.1,7.2 64.1,7.2 
	64.1,7.9 "/>
<polygon class="st0" points="63.8,5.6 62,5.6 62,7.3 64,7.3 64,7.9 61.4,7.9 61.4,3.2 63.9,3.2 63.9,3.7 62,3.7 62,5.1 63.8,5.1 "/>
<path class="st0" d="M68.6,8c-0.5,0-1-0.1-1.3-0.3l-0.1,0L67.5,7L67.6,7c0.3,0.2,0.7,0.3,1,0.3c0.5,0,0.9-0.3,0.9-0.7
	c0-0.4-0.2-0.6-0.8-0.8c-0.9-0.3-1.3-0.8-1.3-1.4C67.4,3.5,68,3,69,3c0.6,0,0.9,0.2,1.1,0.2l0.1,0l-0.2,0.7l-0.1-0.1
	c-0.1-0.1-0.4-0.2-0.8-0.2c-0.5,0-0.8,0.3-0.8,0.6c0,0.4,0.2,0.6,0.9,0.8c0.9,0.3,1.3,0.8,1.3,1.5C70.3,7.2,69.8,8,68.6,8"/>
<path class="st0" d="M67.5,7.1c0.3,0.2,0.7,0.3,1.1,0.3c0.6,0,1-0.3,1-0.8c0-0.4-0.3-0.7-0.9-0.9c-0.8-0.3-1.2-0.7-1.2-1.3
	c0-0.7,0.6-1.3,1.5-1.3c0.5,0,0.8,0.1,1,0.2l-0.2,0.5c-0.2-0.1-0.5-0.2-0.9-0.2c-0.6,0-0.9,0.4-0.9,0.7c0,0.4,0.3,0.7,0.9,0.9
	c0.8,0.3,1.2,0.7,1.2,1.4c0,0.7-0.5,1.4-1.6,1.4c-0.5,0-0.9-0.1-1.2-0.3L67.5,7.1z"/>
<polygon class="st0" points="74.6,7.9 74.6,3.8 73.2,3.8 73.2,3.1 76.9,3.1 76.9,3.8 75.4,3.8 75.4,7.9 "/>
<polygon class="st0" points="74.7,3.7 73.3,3.7 73.3,3.2 76.8,3.2 76.8,3.7 75.3,3.7 75.3,7.9 74.7,7.9 "/>
<path class="st0" d="M82.4,7.9l-0.5-1.5h-1.5l-0.5,1.5h-0.8l1.7-4.9h0.9l1.7,4.9H82.4z M81.7,5.8l-0.4-1.2c-0.1-0.2-0.1-0.4-0.2-0.5
	c0,0.2-0.1,0.3-0.2,0.5l-0.4,1.2H81.7z"/>
<path class="st0" d="M80.3,6.4l-0.5,1.5h-0.6l1.6-4.7h0.7l1.6,4.7h-0.6L82,6.4H80.3z M81.8,5.9l-0.5-1.4c-0.1-0.3-0.2-0.6-0.2-0.9h0
	C81.1,4,81,4.3,80.9,4.5l-0.5,1.4H81.8z"/>
<path class="st0" d="M88.1,8c-0.7,0-1.8-0.3-1.8-2.1V3.1h0.8v2.9c0,0.9,0.4,1.4,1,1.4c0.9,0,1-0.8,1-1.4V3.1H90v2.8
	C90,7.2,89.3,8,88.1,8"/>
<path class="st0" d="M87,3.2v2.8c0,1.1,0.5,1.5,1.1,1.5c0.7,0,1.1-0.5,1.1-1.5V3.2h0.6v2.7c0,1.4-0.8,2-1.8,2c-1,0-1.7-0.6-1.7-2
	V3.2H87z"/>
<path class="st0" d="M96.1,7.9L96.1,7.9c-0.1-0.2-0.2-0.5-0.4-1.2c-0.1-0.6-0.3-0.8-0.9-0.8h-0.5v2h-0.8V3.1l0.1,0
	C94,3.1,94.4,3,94.9,3c0.7,0,1.1,0.1,1.4,0.4c0.3,0.2,0.4,0.6,0.4,1c0,0.5-0.3,1-0.8,1.2c0.3,0.2,0.5,0.5,0.6,0.9
	c0.1,0.6,0.3,1.1,0.4,1.3l0.1,0.1H96.1z M94.9,5.3c0.6,0,1-0.3,1-0.8c0-0.6-0.5-0.8-1-0.8c-0.2,0-0.4,0-0.5,0v1.5H94.9z"/>
<path class="st0" d="M93.7,3.2c0.3-0.1,0.7-0.1,1.2-0.1c0.6,0,1.1,0.1,1.4,0.4c0.2,0.2,0.4,0.5,0.4,0.9c0,0.6-0.4,1-0.9,1.2v0
	c0.4,0.1,0.6,0.5,0.7,0.9c0.2,0.7,0.3,1.1,0.4,1.3h-0.6c-0.1-0.1-0.2-0.5-0.3-1.1c-0.1-0.6-0.4-0.9-0.9-0.9h-0.6v2h-0.6V3.2z
	 M94.3,5.4h0.6C95.6,5.4,96,5,96,4.5c0-0.6-0.4-0.9-1.1-0.9c-0.3,0-0.5,0-0.6,0.1V5.4z"/>
<path class="st0" d="M103.1,7.9l-0.5-1.5h-1.5l-0.5,1.5h-0.8l1.7-4.9h0.9l1.7,4.9H103.1z M102.4,5.8L102,4.6
	c-0.1-0.2-0.1-0.4-0.2-0.5c0,0.2-0.1,0.3-0.2,0.5l-0.4,1.2H102.4z"/>
<path class="st0" d="M101,6.4l-0.5,1.5h-0.6l1.6-4.7h0.7l1.6,4.7h-0.6l-0.5-1.5H101z M102.6,5.9l-0.5-1.4c-0.1-0.3-0.2-0.6-0.2-0.9
	h0c-0.1,0.3-0.1,0.6-0.2,0.9l-0.5,1.4H102.6z"/>
<path class="st0" d="M110.2,7.9l-1.5-2.4c-0.3-0.5-0.5-0.9-0.7-1.2c0,0.5,0,0.9,0,1.5v2.1h-0.8V3.1h0.8l1.5,2.4
	c0.2,0.4,0.5,0.8,0.6,1.1c0-0.5,0-1,0-1.5V3.1h0.8v4.9H110.2z"/>
<path class="st0" d="M107.3,7.9V3.2h0.7l1.5,2.4c0.3,0.6,0.6,1,0.8,1.5l0,0c-0.1-0.6-0.1-1.2-0.1-1.9v-2h0.6v4.7h-0.6l-1.5-2.4
	c-0.3-0.5-0.6-1.1-0.9-1.6l0,0c0,0.6,0,1.2,0,1.9v2H107.3z"/>
<polygon class="st0" points="115.5,7.9 115.5,3.8 114.1,3.8 114.1,3.1 117.8,3.1 117.8,3.8 116.3,3.8 116.3,7.9 "/>
<polygon class="st0" points="115.6,3.7 114.2,3.7 114.2,3.2 117.7,3.2 117.7,3.7 116.2,3.7 116.2,7.9 115.6,7.9 "/>
<path class="st0" d="M121.9,8c-0.5,0-1-0.1-1.3-0.3l-0.1,0l0.2-0.7l0.1,0.1c0.3,0.2,0.7,0.3,1,0.3c0.5,0,0.9-0.3,0.9-0.7
	c0-0.4-0.2-0.6-0.8-0.8c-0.9-0.3-1.3-0.8-1.3-1.4c0-0.8,0.7-1.4,1.6-1.4c0.6,0,0.9,0.2,1.1,0.2l0.1,0l-0.2,0.7l-0.1-0.1
	c-0.1-0.1-0.4-0.2-0.8-0.2c-0.5,0-0.8,0.3-0.8,0.6c0,0.4,0.2,0.6,0.9,0.8c0.9,0.3,1.3,0.8,1.3,1.5C123.6,7.2,123.2,8,121.9,8"/>
<path class="st0" d="M120.8,7.1c0.3,0.2,0.7,0.3,1.1,0.3c0.6,0,1-0.3,1-0.8c0-0.4-0.3-0.7-0.9-0.9c-0.8-0.3-1.2-0.7-1.2-1.3
	c0-0.7,0.6-1.3,1.5-1.3c0.5,0,0.8,0.1,1,0.2l-0.2,0.5c-0.2-0.1-0.5-0.2-0.9-0.2c-0.6,0-0.9,0.4-0.9,0.7c0,0.4,0.3,0.7,0.9,0.9
	c0.8,0.3,1.2,0.7,1.2,1.4c0,0.7-0.5,1.4-1.6,1.4c-0.5,0-0.9-0.1-1.2-0.3L120.8,7.1z"/>
<path class="st0" d="M13.5,33.5l-1.2-3.8H13l0.6,1.8c0.1,0.4,0.2,0.7,0.3,1c0.1-0.3,0.2-0.6,0.3-1l0.6-1.8h0.7l-1.4,3.8H13.5z"/>
<path class="st0" d="M13.6,33.4l-1.2-3.6h0.5l0.6,1.8c0.2,0.5,0.3,0.9,0.4,1.3h0c0.1-0.4,0.3-0.9,0.4-1.3l0.6-1.8h0.5l-1.3,3.6H13.6
	z"/>
<path class="st0" d="M19.7,33.5L19.7,33.5c-0.1-0.2-0.2-0.4-0.3-0.9c-0.1-0.5-0.3-0.6-0.6-0.6h-0.3v1.6h-0.7v-3.7l0.1,0
	c0.2,0,0.6-0.1,0.9-0.1c0.5,0,0.9,0.1,1.1,0.3c0.2,0.2,0.3,0.5,0.3,0.8c0,0.4-0.2,0.7-0.6,0.9c0.2,0.1,0.3,0.4,0.4,0.7
	c0.1,0.5,0.2,0.8,0.3,1l0.1,0.1H19.7z M18.8,31.4c0.4,0,0.7-0.2,0.7-0.6c0-0.4-0.2-0.6-0.7-0.6c-0.2,0-0.3,0-0.4,0v1.1H18.8z"/>
<path class="st0" d="M17.9,29.8c0.2,0,0.6-0.1,0.9-0.1c0.5,0,0.8,0.1,1,0.3c0.2,0.2,0.3,0.4,0.3,0.7c0,0.5-0.3,0.8-0.7,0.9v0
	c0.3,0.1,0.4,0.4,0.5,0.7c0.1,0.5,0.2,0.8,0.3,1h-0.5c-0.1-0.1-0.1-0.4-0.2-0.9c-0.1-0.5-0.3-0.7-0.7-0.7h-0.4v1.6h-0.5V29.8z
	 M18.4,31.5h0.5c0.5,0,0.8-0.3,0.8-0.7c0-0.5-0.3-0.7-0.8-0.7c-0.2,0-0.4,0-0.5,0V31.5z"/>
<path class="st0" d="M25.1,33.5l-0.4-1.1h-1.1l-0.4,1.1h-0.7l1.3-3.8h0.7l1.3,3.8H25.1z M24.5,31.8l-0.3-0.9c0-0.1-0.1-0.2-0.1-0.3
	c0,0.1-0.1,0.2-0.1,0.3l-0.3,0.9H24.5z"/>
<path class="st0" d="M23.5,32.3l-0.4,1.1h-0.5l1.2-3.6h0.6l1.2,3.6h-0.5l-0.4-1.1H23.5z M24.7,31.9l-0.4-1c-0.1-0.2-0.1-0.4-0.2-0.7
	h0c-0.1,0.2-0.1,0.4-0.2,0.6l-0.4,1H24.7z"/>
<rect x="28.2" y="29.7" class="st0" width="0.7" height="3.8"/>
<rect x="28.3" y="29.8" class="st0" width="0.5" height="3.6"/>
<path class="st0" d="M32.5,33.5c-0.4,0-0.8-0.1-1-0.2l-0.1,0l0.2-0.6l0.1,0.1c0.2,0.1,0.5,0.2,0.8,0.2c0.4,0,0.7-0.2,0.7-0.5
	c0-0.2-0.1-0.4-0.6-0.6c-0.7-0.2-1-0.6-1-1.1c0-0.6,0.5-1.1,1.3-1.1c0.4,0,0.7,0.1,0.8,0.2l0.1,0l-0.2,0.6l-0.1-0.1
	c-0.1-0.1-0.3-0.2-0.6-0.2c-0.4,0-0.6,0.2-0.6,0.4c0,0.3,0.2,0.4,0.7,0.6c0.7,0.3,1,0.6,1,1.1C33.8,32.9,33.5,33.5,32.5,33.5"/>
<path class="st0" d="M31.7,32.8c0.2,0.1,0.5,0.2,0.8,0.2c0.5,0,0.8-0.3,0.8-0.6c0-0.3-0.2-0.5-0.7-0.7c-0.6-0.2-0.9-0.5-0.9-1
	c0-0.6,0.5-1,1.2-1c0.4,0,0.6,0.1,0.8,0.2l-0.1,0.4c-0.1-0.1-0.4-0.2-0.7-0.2c-0.5,0-0.7,0.3-0.7,0.5c0,0.3,0.2,0.5,0.7,0.7
	c0.6,0.2,0.9,0.5,0.9,1.1c0,0.6-0.4,1-1.3,1c-0.3,0-0.7-0.1-0.9-0.2L31.7,32.8z"/>
<path class="st0" d="M41.4,33.5c-0.6,0-1.1-0.2-1.4-0.5c-0.3-0.3-0.5-0.8-0.5-1.4c0-1.2,0.8-2,2-2c0.4,0,0.8,0.1,0.9,0.2l0.1,0
	l-0.2,0.6l-0.1,0c-0.2-0.1-0.4-0.1-0.8-0.1c-0.8,0-1.3,0.5-1.3,1.3c0,0.8,0.5,1.4,1.3,1.4c0.3,0,0.4,0,0.5-0.1V32h-0.7v-0.6h1.4v1.9
	l-0.1,0C42.3,33.4,41.8,33.5,41.4,33.5"/>
<path class="st0" d="M42.5,33.2c-0.2,0.1-0.6,0.2-1.1,0.2c-0.5,0-1-0.1-1.3-0.5c-0.3-0.3-0.5-0.8-0.5-1.3c0-1.1,0.7-1.9,1.9-1.9
	c0.4,0,0.7,0.1,0.9,0.2l-0.1,0.4c-0.2-0.1-0.4-0.2-0.8-0.2c-0.9,0-1.4,0.5-1.4,1.4c0,0.9,0.5,1.5,1.4,1.5c0.3,0,0.5,0,0.6-0.1v-1.1
	h-0.7v-0.4h1.2V33.2z"/>
<path class="st0" d="M46.7,33.5c-1,0-1.7-0.8-1.7-1.9c0-1.2,0.7-2,1.8-2c1,0,1.7,0.8,1.7,1.9C48.5,32.9,47.6,33.5,46.7,33.5
	 M46.8,30.2c-0.7,0-1.1,0.7-1.1,1.4c0,0.7,0.3,1.4,1.1,1.4c0.7,0,1.1-0.7,1.1-1.4C47.8,30.9,47.5,30.2,46.8,30.2"/>
<path class="st0" d="M48.4,31.6c0,1.2-0.8,1.9-1.7,1.9c-0.9,0-1.6-0.7-1.6-1.8c0-1.1,0.7-1.9,1.7-1.9C47.8,29.7,48.4,30.5,48.4,31.6
	 M45.6,31.6c0,0.8,0.4,1.5,1.1,1.5c0.7,0,1.2-0.7,1.2-1.5c0-0.7-0.4-1.5-1.1-1.5C46,30.1,45.6,30.8,45.6,31.6"/>
<path class="st0" d="M52.4,33.5c-0.5,0-1.4-0.2-1.4-1.6v-2.2h0.7v2.2c0,0.7,0.3,1.1,0.7,1.1c0.5,0,0.8-0.4,0.8-1.1v-2.2h0.7v2.2
	C53.9,32.9,53.3,33.5,52.4,33.5"/>
<path class="st0" d="M51.6,29.8v2.1c0,0.8,0.4,1.1,0.8,1.1c0.5,0,0.9-0.4,0.9-1.1v-2.1h0.5v2.1c0,1.1-0.6,1.6-1.4,1.6
	c-0.7,0-1.3-0.4-1.3-1.5v-2.1H51.6z"/>
<path class="st0" d="M58.5,33.5L58.5,33.5c-0.1-0.2-0.2-0.4-0.3-0.9c-0.1-0.5-0.3-0.6-0.6-0.6h-0.3v1.6h-0.7v-3.7l0.1,0
	c0.2,0,0.6-0.1,0.9-0.1c0.5,0,0.9,0.1,1.1,0.3c0.2,0.2,0.3,0.5,0.3,0.8c0,0.4-0.2,0.7-0.6,0.9c0.2,0.1,0.3,0.4,0.4,0.7
	c0.1,0.5,0.2,0.8,0.3,1l0.1,0.1H58.5z M57.6,31.4c0.4,0,0.7-0.2,0.7-0.6c0-0.4-0.2-0.6-0.7-0.6c-0.2,0-0.3,0-0.4,0v1.1H57.6z"/>
<path class="st0" d="M56.7,29.8c0.2,0,0.6-0.1,0.9-0.1c0.5,0,0.8,0.1,1,0.3c0.2,0.2,0.3,0.4,0.3,0.7c0,0.5-0.3,0.8-0.7,0.9v0
	c0.3,0.1,0.4,0.4,0.5,0.7c0.1,0.5,0.2,0.8,0.3,1h-0.5c-0.1-0.1-0.1-0.4-0.2-0.9c-0.1-0.5-0.3-0.7-0.7-0.7h-0.4v1.6h-0.5V29.8z
	 M57.2,31.5h0.5c0.5,0,0.8-0.3,0.8-0.7c0-0.5-0.3-0.7-0.8-0.7c-0.2,0-0.4,0-0.5,0V31.5z"/>
<path class="st0" d="M64.7,33.5l-0.1-1.7c0-0.3,0-0.7,0-1c-0.1,0.3-0.2,0.5-0.3,0.8l-0.7,1.8h-0.5l-0.6-1.8
	c-0.1-0.3-0.2-0.6-0.3-0.8c0,0.3,0,0.7,0,1l-0.1,1.6h-0.6l0.3-3.8h0.7l0.6,1.8c0.1,0.4,0.2,0.6,0.3,0.9c0.1-0.3,0.2-0.5,0.3-0.9
	l0.7-1.8h0.7l0.2,3.8H64.7z"/>
<path class="st0" d="M64.7,31.8c0-0.5-0.1-1.1-0.1-1.6h0c-0.1,0.4-0.3,0.9-0.5,1.4l-0.6,1.7h-0.4l-0.6-1.7c-0.2-0.5-0.3-1-0.4-1.4h0
	c0,0.4,0,1-0.1,1.6l-0.1,1.5h-0.4l0.3-3.6h0.6l0.6,1.7c0.1,0.4,0.3,0.8,0.4,1.2h0c0.1-0.4,0.2-0.8,0.4-1.2l0.6-1.7h0.6l0.2,3.6h-0.5
	L64.7,31.8z"/>
<path class="st0" d="M70.2,33.5l-0.4-1.1h-1.1l-0.4,1.1h-0.7l1.3-3.8h0.7l1.3,3.8H70.2z M69.7,31.8l-0.3-0.9c0-0.1-0.1-0.2-0.1-0.3
	c0,0.1-0.1,0.2-0.1,0.3l-0.3,0.9H69.7z"/>
<path class="st0" d="M68.7,32.3l-0.4,1.1h-0.5l1.2-3.6h0.6l1.2,3.6h-0.5l-0.4-1.1H68.7z M69.8,31.9l-0.4-1c-0.1-0.2-0.1-0.4-0.2-0.7
	h0c-0.1,0.2-0.1,0.4-0.2,0.6l-0.4,1H69.8z"/>
<path class="st0" d="M75.6,33.5l-1.2-1.9c-0.2-0.3-0.4-0.6-0.5-0.8c0,0.3,0,0.7,0,1.1v1.6h-0.6v-3.8H74l1.2,1.9
	c0.2,0.3,0.3,0.5,0.4,0.8c0-0.3,0-0.7,0-1v-1.6h0.6v3.8H75.6z"/>
<path class="st0" d="M73.5,33.4v-3.6H74l1.2,1.8c0.3,0.4,0.5,0.8,0.6,1.2l0,0c0-0.5-0.1-0.9-0.1-1.5v-1.5h0.4v3.6h-0.5l-1.1-1.8
	c-0.3-0.4-0.5-0.8-0.7-1.2l0,0c0,0.5,0,0.9,0,1.5v1.5H73.5z"/>
<path class="st0" d="M79.9,33.5c-0.3,0-0.6,0-0.9,0l-0.1,0v-3.7l0.1,0c0.3-0.1,0.7-0.1,1-0.1c0.7,0,1.2,0.2,1.5,0.5
	c0.4,0.3,0.5,0.8,0.5,1.4c0,0.6-0.2,1.1-0.5,1.5C81.2,33.3,80.7,33.5,79.9,33.5 M79.7,32.9c0.1,0,0.2,0,0.4,0c0.9,0,1.4-0.5,1.4-1.4
	c0-0.4-0.1-0.7-0.3-0.9c-0.2-0.2-0.6-0.4-1-0.4c-0.2,0-0.3,0-0.4,0V32.9z"/>
<path class="st0" d="M79.1,29.8c0.3,0,0.6-0.1,1-0.1c0.7,0,1.1,0.2,1.5,0.4c0.3,0.3,0.5,0.7,0.5,1.3c0,0.6-0.2,1.1-0.5,1.4
	c-0.3,0.3-0.9,0.5-1.6,0.5c-0.3,0-0.6,0-0.8,0V29.8z M79.6,33c0.1,0,0.3,0,0.5,0c1,0,1.5-0.6,1.5-1.5c0-0.8-0.5-1.4-1.5-1.4
	c-0.2,0-0.4,0-0.5,0V33z"/>
<path class="st0" d="M85.5,33.5c-0.4,0-0.8-0.1-1-0.2l-0.1,0l0.2-0.6l0.1,0.1c0.2,0.1,0.5,0.2,0.8,0.2c0.4,0,0.7-0.2,0.7-0.5
	c0-0.2-0.1-0.4-0.6-0.6c-0.7-0.2-1-0.6-1-1.1c0-0.6,0.5-1.1,1.3-1.1c0.4,0,0.7,0.1,0.8,0.2l0.1,0l-0.2,0.6l-0.1-0.1
	c-0.1-0.1-0.3-0.2-0.6-0.2c-0.4,0-0.6,0.2-0.6,0.4c0,0.3,0.2,0.4,0.7,0.6c0.7,0.3,1,0.6,1,1.1C86.9,32.9,86.5,33.5,85.5,33.5"/>
<path class="st0" d="M84.7,32.8c0.2,0.1,0.5,0.2,0.8,0.2c0.5,0,0.8-0.3,0.8-0.6c0-0.3-0.2-0.5-0.7-0.7c-0.6-0.2-0.9-0.5-0.9-1
	c0-0.6,0.5-1,1.2-1c0.4,0,0.6,0.1,0.8,0.2l-0.1,0.4c-0.1-0.1-0.4-0.2-0.7-0.2c-0.5,0-0.7,0.3-0.7,0.5c0,0.3,0.2,0.5,0.7,0.7
	c0.6,0.2,0.9,0.5,0.9,1.1c0,0.6-0.4,1-1.3,1c-0.3,0-0.7-0.1-0.9-0.2L84.7,32.8z"/>
<path class="st0" d="M93.7,33.5c-0.8,0-1.2-0.6-1.2-1.1c0-0.5,0.2-0.8,0.7-1.1c-0.2-0.2-0.3-0.5-0.3-0.7c0-0.5,0.4-1,1-1
	c0.5,0,0.9,0.4,0.9,0.9c0,0.4-0.2,0.7-0.8,1c0.2,0.3,0.5,0.6,0.7,0.8c0.1-0.2,0.2-0.5,0.3-0.9l0-0.1h0.6l0,0.1
	c-0.1,0.6-0.3,1-0.5,1.3c0.1,0.1,0.7,0.7,0.7,0.7H95l0,0c-0.1-0.1-0.2-0.2-0.3-0.3C94.4,33.4,94.1,33.5,93.7,33.5 M93.5,31.8
	c-0.2,0.2-0.4,0.4-0.4,0.6c0,0.4,0.3,0.6,0.6,0.6c0.2,0,0.4-0.1,0.6-0.2C94.2,32.5,93.8,32.2,93.5,31.8 M93.9,30.2
	c-0.3,0-0.4,0.2-0.4,0.4c0,0.2,0.1,0.4,0.2,0.5c0.3-0.2,0.5-0.3,0.5-0.6C94.2,30.5,94.2,30.2,93.9,30.2"/>
<path class="st0" d="M95.1,33.4c-0.1-0.1-0.2-0.2-0.3-0.4c-0.3,0.3-0.7,0.4-1.1,0.4c-0.7,0-1.1-0.5-1.1-1c0-0.5,0.3-0.8,0.7-1v0
	c-0.2-0.2-0.3-0.5-0.3-0.8c0-0.4,0.3-0.9,0.9-0.9c0.4,0,0.8,0.3,0.8,0.8c0,0.4-0.2,0.7-0.8,1v0c0.3,0.4,0.6,0.7,0.9,1
	c0.2-0.3,0.3-0.6,0.3-1h0.4c-0.1,0.6-0.3,1-0.5,1.3c0.2,0.2,0.4,0.4,0.6,0.6H95.1z M94.5,32.8c-0.2-0.2-0.6-0.7-1-1.1
	C93.3,31.8,93,32,93,32.4c0,0.4,0.3,0.7,0.7,0.7C94.1,33.1,94.3,33,94.5,32.8 M93.4,30.6c0,0.3,0.1,0.5,0.3,0.6
	c0.4-0.2,0.6-0.4,0.6-0.7c0-0.2-0.1-0.5-0.4-0.5C93.6,30.1,93.4,30.3,93.4,30.6"/>
<polygon class="st0" points="101.3,33.5 101.3,29.7 103.5,29.7 103.5,30.3 102,30.3 102,31.3 103.4,31.3 103.4,31.9 102,31.9 
	102,33.5 "/>
<polygon class="st0" points="101.4,29.8 103.4,29.8 103.4,30.2 101.9,30.2 101.9,31.4 103.3,31.4 103.3,31.8 101.9,31.8 101.9,33.4 
	101.4,33.4 "/>
<path class="st0" d="M108,33.5L108,33.5c-0.1-0.2-0.2-0.4-0.3-0.9c-0.1-0.5-0.3-0.6-0.6-0.6h-0.3v1.6h-0.7v-3.7l0.1,0
	c0.2,0,0.6-0.1,0.9-0.1c0.5,0,0.9,0.1,1.1,0.3c0.2,0.2,0.3,0.5,0.3,0.8c0,0.4-0.2,0.7-0.6,0.9c0.2,0.1,0.3,0.4,0.4,0.7
	c0.1,0.5,0.2,0.8,0.3,1l0.1,0.1H108z M107.1,31.4c0.4,0,0.7-0.2,0.7-0.6c0-0.4-0.2-0.6-0.7-0.6c-0.2,0-0.3,0-0.4,0v1.1H107.1z"/>
<path class="st0" d="M106.2,29.8c0.2,0,0.6-0.1,0.9-0.1c0.5,0,0.8,0.1,1,0.3c0.2,0.2,0.3,0.4,0.3,0.7c0,0.5-0.3,0.8-0.7,0.9v0
	c0.3,0.1,0.4,0.4,0.5,0.7c0.1,0.5,0.2,0.8,0.3,1H108c-0.1-0.1-0.1-0.4-0.2-0.9c-0.1-0.5-0.3-0.7-0.7-0.7h-0.4v1.6h-0.5V29.8z
	 M106.6,31.5h0.5c0.5,0,0.8-0.3,0.8-0.7c0-0.5-0.3-0.7-0.8-0.7c-0.2,0-0.4,0-0.5,0V31.5z"/>
<path class="st0" d="M113.4,33.5l-0.4-1.1h-1.1l-0.4,1.1h-0.7l1.3-3.8h0.7l1.3,3.8H113.4z M112.8,31.8l-0.3-0.9
	c0-0.1-0.1-0.2-0.1-0.3c0,0.1-0.1,0.2-0.1,0.3l-0.3,0.9H112.8z"/>
<path class="st0" d="M111.8,32.3l-0.4,1.1h-0.5l1.2-3.6h0.6l1.2,3.6h-0.5l-0.4-1.1H111.8z M112.9,31.9l-0.4-1
	c-0.1-0.2-0.1-0.4-0.2-0.7h0c-0.1,0.2-0.1,0.4-0.2,0.6l-0.4,1H112.9z"/>
<path class="st0" d="M118.8,33.5l-1.2-1.9c-0.2-0.3-0.4-0.6-0.5-0.8c0,0.3,0,0.7,0,1.1v1.6h-0.6v-3.8h0.7l1.2,1.9
	c0.2,0.3,0.3,0.5,0.4,0.8c0-0.3,0-0.7,0-1v-1.6h0.6v3.8H118.8z"/>
<path class="st0" d="M116.6,33.4v-3.6h0.5l1.2,1.8c0.3,0.4,0.5,0.8,0.6,1.2l0,0c0-0.5-0.1-0.9-0.1-1.5v-1.5h0.4v3.6h-0.5l-1.1-1.8
	c-0.3-0.4-0.5-0.8-0.7-1.2l0,0c0,0.5,0,0.9,0,1.5v1.5H116.6z"/>
<path class="st0" d="M123.8,33.5c-1.1,0-1.9-0.8-1.9-1.9c0-1.2,0.8-2,2-2c0.5,0,0.8,0.1,0.9,0.2l0.1,0l-0.2,0.6l-0.1,0
	c-0.2-0.1-0.4-0.1-0.7-0.1c-0.8,0-1.3,0.5-1.3,1.4c0,0.8,0.5,1.3,1.3,1.3c0.3,0,0.5-0.1,0.7-0.1l0.1-0.1l0.1,0.6l-0.1,0
	C124.6,33.5,124.2,33.5,123.8,33.5"/>
<path class="st0" d="M124.7,33.3c-0.2,0.1-0.5,0.2-0.9,0.2c-1,0-1.8-0.6-1.8-1.8c0-1.1,0.8-1.9,1.9-1.9c0.4,0,0.7,0.1,0.9,0.2
	l-0.1,0.4c-0.2-0.1-0.4-0.1-0.7-0.1c-0.8,0-1.4,0.5-1.4,1.5c0,0.9,0.5,1.4,1.4,1.4c0.3,0,0.6-0.1,0.8-0.1L124.7,33.3z"/>
<path class="st0" d="M128.2,33.5c-0.4,0-0.8-0.1-1-0.2l-0.1,0l0.2-0.6l0.1,0.1c0.2,0.1,0.5,0.2,0.8,0.2c0.4,0,0.7-0.2,0.7-0.5
	c0-0.2-0.1-0.4-0.6-0.6c-0.7-0.2-1-0.6-1-1.1c0-0.6,0.5-1.1,1.3-1.1c0.4,0,0.7,0.1,0.8,0.2l0.1,0l-0.2,0.6l-0.1-0.1
	c-0.1-0.1-0.3-0.2-0.6-0.2c-0.4,0-0.6,0.2-0.6,0.4c0,0.3,0.2,0.4,0.7,0.6c0.7,0.3,1,0.6,1,1.1C129.5,32.9,129.2,33.5,128.2,33.5"/>
<path class="st0" d="M127.4,32.8c0.2,0.1,0.5,0.2,0.8,0.2c0.5,0,0.8-0.3,0.8-0.6c0-0.3-0.2-0.5-0.7-0.7c-0.6-0.2-0.9-0.5-0.9-1
	c0-0.6,0.5-1,1.2-1c0.4,0,0.6,0.1,0.8,0.2l-0.1,0.4c-0.1-0.1-0.4-0.2-0.7-0.2c-0.5,0-0.7,0.3-0.7,0.5c0,0.3,0.2,0.5,0.7,0.7
	c0.6,0.2,0.9,0.5,0.9,1.1c0,0.6-0.4,1-1.3,1c-0.3,0-0.7-0.1-0.9-0.2L127.4,32.8z"/>
<path class="st0" d="M136.2,33.5c-0.3,0-0.6,0-0.7,0l-0.1,0v-3.7l0.1,0c0.2,0,0.6-0.1,0.9-0.1c0.5,0,0.8,0.1,1,0.3
	c0.2,0.2,0.3,0.4,0.3,0.7c0,0.3-0.2,0.6-0.5,0.8c0.3,0.1,0.6,0.4,0.6,0.9c0,0.3-0.1,0.6-0.3,0.8C137.2,33.4,136.8,33.5,136.2,33.5
	 M136,33c0.1,0,0.2,0,0.3,0c0.3,0,0.8-0.1,0.8-0.6c0-0.5-0.6-0.6-0.8-0.6H136V33z M136.4,31.2c0.4,0,0.7-0.2,0.7-0.5
	c0-0.1,0-0.5-0.7-0.5c-0.1,0-0.2,0-0.3,0v1H136.4z"/>
<path class="st0" d="M135.5,29.8c0.2,0,0.5-0.1,0.8-0.1c0.5,0,0.8,0.1,1,0.3c0.2,0.1,0.3,0.4,0.3,0.6c0,0.3-0.2,0.7-0.6,0.8v0
	c0.3,0.1,0.7,0.4,0.7,0.9c0,0.3-0.1,0.5-0.3,0.7c-0.3,0.2-0.7,0.3-1.2,0.3c-0.3,0-0.6,0-0.7,0V29.8z M135.9,31.3h0.4
	c0.5,0,0.8-0.3,0.8-0.6c0-0.4-0.3-0.6-0.8-0.6c-0.2,0-0.3,0-0.4,0V31.3z M135.9,33c0.1,0,0.2,0,0.4,0c0.5,0,0.9-0.2,0.9-0.7
	c0-0.5-0.4-0.7-0.9-0.7h-0.4V33z"/>
<path class="st0" d="M141.8,33.5c-0.5,0-1.4-0.2-1.4-1.6v-2.2h0.7v2.2c0,0.7,0.3,1.1,0.7,1.1c0.5,0,0.8-0.4,0.8-1.1v-2.2h0.7v2.2
	C143.2,32.9,142.7,33.5,141.8,33.5"/>
<path class="st0" d="M141,29.8v2.1c0,0.8,0.4,1.1,0.8,1.1c0.5,0,0.9-0.4,0.9-1.1v-2.1h0.5v2.1c0,1.1-0.6,1.6-1.4,1.6
	c-0.7,0-1.3-0.4-1.3-1.5v-2.1H141z"/>
<path class="st0" d="M146.8,33.5l-1.2-3.8h0.7l0.6,1.8c0.1,0.4,0.2,0.7,0.3,1c0.1-0.3,0.2-0.6,0.3-1l0.6-1.8h0.7l-1.4,3.8H146.8z"/>
<path class="st0" d="M146.9,33.4l-1.2-3.6h0.5l0.6,1.8c0.2,0.5,0.3,0.9,0.4,1.3h0c0.1-0.4,0.3-0.9,0.4-1.3l0.6-1.8h0.5l-1.3,3.6
	H146.9z"/>
<polygon class="st0" points="151.1,33.5 151.1,29.7 153.2,29.7 153.2,30.3 151.7,30.3 151.7,31.2 153.1,31.2 153.1,31.8 151.7,31.8 
	151.7,32.9 153.3,32.9 153.3,33.5 "/>
<polygon class="st0" points="153,31.7 151.6,31.7 151.6,33 153.2,33 153.2,33.4 151.2,33.4 151.2,29.8 153.1,29.8 153.1,30.2 
	151.6,30.2 151.6,31.3 153,31.3 "/>
<path class="st0" d="M157.2,33.5c-0.5,0-1.4-0.2-1.4-1.6v-2.2h0.7v2.2c0,0.7,0.3,1.1,0.7,1.1c0.5,0,0.8-0.4,0.8-1.1v-2.2h0.7v2.2
	C158.7,32.9,158.1,33.5,157.2,33.5"/>
<path class="st0" d="M156.4,29.8v2.1c0,0.8,0.4,1.1,0.8,1.1c0.5,0,0.9-0.4,0.9-1.1v-2.1h0.5v2.1c0,1.1-0.6,1.6-1.4,1.6
	c-0.7,0-1.3-0.4-1.3-1.5v-2.1H156.4z"/>
<path class="st0" d="M163.3,33.5L163.3,33.5c-0.1-0.2-0.2-0.4-0.3-0.9c-0.1-0.5-0.3-0.6-0.6-0.6h-0.3v1.6h-0.7v-3.7l0.1,0
	c0.2,0,0.6-0.1,0.9-0.1c0.5,0,0.9,0.1,1.1,0.3c0.2,0.2,0.3,0.5,0.3,0.8c0,0.4-0.2,0.7-0.6,0.9c0.2,0.1,0.3,0.4,0.4,0.7
	c0.1,0.5,0.2,0.8,0.3,1l0.1,0.1H163.3z M162.5,31.4c0.4,0,0.7-0.2,0.7-0.6c0-0.4-0.2-0.6-0.7-0.6c-0.2,0-0.3,0-0.4,0v1.1H162.5z"/>
<path class="st0" d="M161.5,29.8c0.2,0,0.6-0.1,0.9-0.1c0.5,0,0.8,0.1,1,0.3c0.2,0.2,0.3,0.4,0.3,0.7c0,0.5-0.3,0.8-0.7,0.9v0
	c0.3,0.1,0.4,0.4,0.5,0.7c0.1,0.5,0.2,0.8,0.3,1h-0.5c-0.1-0.1-0.1-0.4-0.2-0.9c-0.1-0.5-0.3-0.7-0.7-0.7H162v1.6h-0.5V29.8z
	 M162,31.5h0.5c0.5,0,0.8-0.3,0.8-0.7c0-0.5-0.3-0.7-0.8-0.7c-0.2,0-0.4,0-0.5,0V31.5z"/>
<path class="st0" d="M167.3,33.5c-0.4,0-0.8-0.1-1-0.2l-0.1,0l0.2-0.6l0.1,0.1c0.2,0.1,0.5,0.2,0.8,0.2c0.4,0,0.7-0.2,0.7-0.5
	c0-0.2-0.1-0.4-0.6-0.6c-0.7-0.2-1-0.6-1-1.1c0-0.6,0.5-1.1,1.3-1.1c0.4,0,0.7,0.1,0.8,0.2l0.1,0l-0.2,0.6l-0.1-0.1
	c-0.1-0.1-0.3-0.2-0.6-0.2c-0.4,0-0.6,0.2-0.6,0.4c0,0.3,0.2,0.4,0.7,0.6c0.7,0.3,1,0.6,1,1.1C168.6,32.9,168.3,33.5,167.3,33.5"/>
<path class="st0" d="M166.5,32.8c0.2,0.1,0.5,0.2,0.8,0.2c0.5,0,0.8-0.3,0.8-0.6c0-0.3-0.2-0.5-0.7-0.7c-0.6-0.2-0.9-0.5-0.9-1
	c0-0.6,0.5-1,1.2-1c0.4,0,0.6,0.1,0.8,0.2l-0.1,0.4c-0.1-0.1-0.4-0.2-0.7-0.2c-0.5,0-0.7,0.3-0.7,0.5c0,0.3,0.2,0.5,0.7,0.7
	c0.6,0.2,0.9,0.5,0.9,1.1c0,0.6-0.4,1-1.3,1c-0.3,0-0.7-0.1-0.9-0.2L166.5,32.8z"/>
<polygon class="st1" points="2,23.6 3.7,23.6 3.7,13.1 2,13.1 2,12.9 5.3,12.9 10.4,21.3 10.5,21.3 10.5,13.1 8.8,13.1 8.8,12.9 
	12.4,12.9 12.4,13.1 10.7,13.1 10.7,24.1 10.4,24.1 3.9,13.8 3.9,13.8 3.9,23.6 5.6,23.6 5.6,23.8 2,23.8 "/>
<polygon class="st1" points="13.2,23.6 14.9,23.6 14.9,13.1 13.2,13.1 13.2,12.9 18.2,12.9 18.2,13.1 16.5,13.1 16.5,23.6 
	18.2,23.6 18.2,23.8 13.2,23.8 "/>
<path class="st1" d="M28.9,23.8h-0.2c-0.1-0.1-0.2-0.2-0.2-0.2c-0.1-0.1-0.2-0.1-0.4-0.1c-0.2,0-0.3,0-0.5,0.1
	c-0.2,0.1-0.4,0.1-0.6,0.2c-0.2,0.1-0.5,0.1-0.8,0.2c-0.3,0.1-0.6,0.1-0.9,0.1c-0.6,0-1.3-0.1-1.9-0.4c-0.6-0.2-1.2-0.6-1.7-1.1
	c-0.5-0.5-0.9-1.1-1.3-1.8c-0.3-0.7-0.5-1.5-0.5-2.4c0-0.8,0.1-1.5,0.4-2.2c0.3-0.7,0.7-1.3,1.1-1.8c0.5-0.5,1.1-1,1.7-1.3
	c0.7-0.3,1.4-0.5,2.2-0.5c0.3,0,0.6,0,0.8,0.1c0.2,0.1,0.5,0.1,0.7,0.2c0.2,0.1,0.4,0.1,0.5,0.2c0.2,0.1,0.3,0.1,0.5,0.1
	c0.2,0,0.3,0,0.4-0.1c0.1-0.1,0.2-0.1,0.2-0.2h0.2V16h-0.2c-0.1-0.4-0.2-0.8-0.4-1.1c-0.1-0.4-0.3-0.7-0.6-1c-0.3-0.3-0.6-0.5-1-0.7
	c-0.4-0.2-0.9-0.3-1.5-0.3c-0.5,0-1,0.1-1.4,0.3c-0.4,0.2-0.7,0.4-1,0.7c-0.3,0.3-0.5,0.6-0.6,1c-0.2,0.4-0.3,0.8-0.4,1.2
	c-0.1,0.4-0.1,0.8-0.2,1.3c0,0.4,0,0.8,0,1.2c0,1.1,0.1,2,0.3,2.7c0.2,0.7,0.4,1.3,0.7,1.7c0.3,0.4,0.7,0.7,1.1,0.9
	c0.4,0.2,0.9,0.2,1.5,0.2c0.7,0,1.2-0.1,1.7-0.3c0.4-0.2,0.8-0.4,1-0.8c0.3-0.3,0.4-0.7,0.6-1.1c0.1-0.4,0.3-0.8,0.4-1.2h0.2V23.8z"
	/>
<path class="st1" d="M30.8,18.4c0-0.8,0.2-1.6,0.5-2.3c0.3-0.7,0.7-1.3,1.2-1.8c0.5-0.5,1.1-0.9,1.7-1.2c0.6-0.3,1.3-0.4,1.9-0.4
	c0.7,0,1.3,0.1,2,0.4c0.6,0.3,1.2,0.7,1.7,1.2c0.5,0.5,0.9,1.1,1.2,1.8c0.3,0.7,0.5,1.5,0.5,2.3c0,0.7-0.1,1.4-0.4,2.1
	c-0.3,0.7-0.7,1.3-1.1,1.8c-0.5,0.5-1,1-1.7,1.3c-0.6,0.3-1.3,0.5-2.1,0.5c-0.8,0-1.5-0.2-2.1-0.5c-0.7-0.3-1.2-0.7-1.7-1.3
	c-0.5-0.5-0.8-1.1-1.1-1.8C30.9,19.8,30.8,19.1,30.8,18.4 M32.5,18.4c0,0.9,0.1,1.7,0.2,2.4c0.1,0.7,0.3,1.3,0.6,1.7
	c0.3,0.5,0.7,0.8,1.1,1c0.4,0.2,1,0.3,1.7,0.3c0.7,0,1.2-0.1,1.7-0.3c0.5-0.2,0.8-0.6,1.1-1c0.3-0.5,0.5-1,0.6-1.7
	c0.1-0.7,0.2-1.5,0.2-2.4c0-0.7,0-1.4-0.1-2c-0.1-0.7-0.3-1.2-0.5-1.8c-0.3-0.5-0.6-0.9-1.1-1.2c-0.5-0.3-1.1-0.5-1.8-0.5
	c-0.7,0-1.4,0.2-1.8,0.5c-0.5,0.3-0.8,0.7-1.1,1.2c-0.3,0.5-0.4,1.1-0.5,1.8C32.6,17,32.5,17.7,32.5,18.4"/>
<path class="st1" d="M42.9,23.6h1.7V13.1h-1.7v-0.2h4.9v0.2h-1.7v10.5h2.7c0.9,0,1.6-0.3,2.1-0.8c0.5-0.6,0.9-1.3,1.1-2.3h0.2v3.4
	h-9.4V23.6z"/>
<path class="st1" d="M52.9,23.6h1.3l4.1-11h0.4l4.2,11h1.4v0.2h-4.7v-0.2h1.7l-1.6-4.3h-3.6l-1.6,4.3h1.7v0.2h-3.3V23.6z M57.9,14.7
	l-1.7,4.5h3.4L57.9,14.7z"/>
<path class="st1" d="M65.5,20.5h0.2c0.1,0.6,0.3,1,0.4,1.4c0.2,0.4,0.4,0.7,0.6,0.9c0.2,0.2,0.4,0.4,0.7,0.6
	c0.2,0.1,0.5,0.2,0.7,0.3c0.2,0.1,0.5,0.1,0.7,0.1c0.2,0,0.4,0,0.6,0c0.5,0,1-0.1,1.3-0.2c0.3-0.2,0.6-0.4,0.8-0.6
	c0.2-0.2,0.3-0.5,0.4-0.8c0.1-0.3,0.1-0.6,0.1-0.8c0-0.4-0.1-0.7-0.2-0.9c-0.1-0.3-0.3-0.5-0.5-0.7c-0.2-0.2-0.4-0.3-0.7-0.4
	c-0.2-0.1-0.5-0.2-0.7-0.3l-1.8-0.5c-0.8-0.3-1.5-0.6-1.9-1c-0.4-0.4-0.6-1-0.6-1.7c0-0.5,0.1-0.9,0.2-1.3c0.2-0.4,0.4-0.7,0.7-1
	c0.3-0.3,0.7-0.5,1.1-0.7c0.4-0.2,0.9-0.2,1.4-0.2c0.4,0,0.7,0,0.9,0.1c0.2,0.1,0.4,0.1,0.6,0.2c0.2,0.1,0.3,0.1,0.5,0.2
	c0.1,0.1,0.3,0.1,0.4,0.1c0.1,0,0.2,0,0.3-0.1c0,0,0.1-0.1,0.2-0.3h0.2v2.8H72c-0.1-0.4-0.2-0.7-0.3-1.1c-0.1-0.3-0.3-0.6-0.6-0.9
	c-0.2-0.3-0.5-0.5-0.9-0.6c-0.3-0.2-0.7-0.2-1.2-0.2c-0.2,0-0.5,0-0.8,0.1c-0.3,0.1-0.6,0.2-0.8,0.3c-0.3,0.2-0.5,0.4-0.6,0.6
	c-0.2,0.3-0.3,0.6-0.3,1c0,0.3,0.1,0.6,0.2,0.8c0.1,0.2,0.3,0.4,0.5,0.6c0.2,0.2,0.4,0.3,0.7,0.4c0.3,0.1,0.5,0.2,0.8,0.3l1.9,0.6
	c0.2,0.1,0.4,0.1,0.7,0.2c0.3,0.1,0.6,0.3,0.9,0.5c0.3,0.2,0.5,0.5,0.7,0.8c0.2,0.3,0.3,0.8,0.3,1.3c0,0.5-0.1,0.9-0.3,1.4
	c-0.2,0.4-0.4,0.8-0.8,1.1c-0.3,0.3-0.7,0.6-1.2,0.8c-0.5,0.2-1,0.3-1.6,0.3c-0.2,0-0.4,0-0.6,0c-0.2,0-0.3,0-0.5,0
	c-0.1,0-0.3,0-0.4-0.1c-0.1,0-0.3-0.1-0.5-0.1c-0.2-0.1-0.4-0.1-0.7-0.2c-0.2-0.1-0.4-0.1-0.6-0.1c-0.2,0-0.3,0-0.3,0.1
	c-0.1,0.1-0.1,0.1-0.1,0.2h-0.2V20.5z"/>
<path class="st1" d="M79.2,23.6h1.7V13.1h-1.7v-0.2h4.9v0.2h-1.7v10.5h2.7c0.9,0,1.6-0.3,2.1-0.8c0.5-0.6,0.9-1.3,1.1-2.3h0.2v3.4
	h-9.4V23.6z"/>
<path class="st1" d="M89.3,23.6h1.3l4.1-11h0.4l4.2,11h1.4v0.2h-4.7v-0.2h1.7L96,19.4h-3.6l-1.6,4.3h1.7v0.2h-3.3V23.6z M94.2,14.7
	l-1.7,4.5h3.4L94.2,14.7z"/>
<path class="st1" d="M101.8,20.5h0.2c0.1,0.6,0.3,1,0.4,1.4c0.2,0.4,0.4,0.7,0.6,0.9c0.2,0.2,0.4,0.4,0.7,0.6
	c0.2,0.1,0.5,0.2,0.7,0.3c0.2,0.1,0.5,0.1,0.7,0.1c0.2,0,0.4,0,0.6,0c0.5,0,1-0.1,1.3-0.2c0.3-0.2,0.6-0.4,0.8-0.6
	c0.2-0.2,0.3-0.5,0.4-0.8c0.1-0.3,0.1-0.6,0.1-0.8c0-0.4-0.1-0.7-0.2-0.9c-0.1-0.3-0.3-0.5-0.5-0.7c-0.2-0.2-0.4-0.3-0.7-0.4
	c-0.2-0.1-0.5-0.2-0.7-0.3l-1.8-0.5c-0.8-0.3-1.5-0.6-1.9-1c-0.4-0.4-0.6-1-0.6-1.7c0-0.5,0.1-0.9,0.2-1.3c0.2-0.4,0.4-0.7,0.7-1
	c0.3-0.3,0.7-0.5,1.1-0.7c0.4-0.2,0.9-0.2,1.4-0.2c0.4,0,0.7,0,0.9,0.1c0.2,0.1,0.4,0.1,0.6,0.2c0.2,0.1,0.3,0.1,0.5,0.2
	c0.1,0.1,0.3,0.1,0.4,0.1c0.1,0,0.2,0,0.3-0.1c0,0,0.1-0.1,0.2-0.3h0.2v2.8h-0.2c-0.1-0.4-0.2-0.7-0.3-1.1c-0.1-0.3-0.3-0.6-0.6-0.9
	c-0.2-0.3-0.5-0.5-0.9-0.6c-0.3-0.2-0.7-0.2-1.2-0.2c-0.2,0-0.5,0-0.8,0.1c-0.3,0.1-0.6,0.2-0.8,0.3c-0.3,0.2-0.5,0.4-0.6,0.6
	c-0.2,0.3-0.3,0.6-0.3,1c0,0.3,0.1,0.6,0.2,0.8c0.1,0.2,0.3,0.4,0.5,0.6c0.2,0.2,0.4,0.3,0.7,0.4c0.3,0.1,0.5,0.2,0.8,0.3l1.9,0.6
	c0.2,0.1,0.4,0.1,0.7,0.2c0.3,0.1,0.6,0.3,0.9,0.5c0.3,0.2,0.5,0.5,0.7,0.8c0.2,0.3,0.3,0.8,0.3,1.3c0,0.5-0.1,0.9-0.3,1.4
	c-0.2,0.4-0.4,0.8-0.8,1.1c-0.3,0.3-0.7,0.6-1.2,0.8c-0.5,0.2-1,0.3-1.6,0.3c-0.2,0-0.4,0-0.6,0c-0.2,0-0.3,0-0.5,0
	c-0.1,0-0.3,0-0.4-0.1c-0.1,0-0.3-0.1-0.5-0.1c-0.2-0.1-0.4-0.1-0.7-0.2c-0.2-0.1-0.4-0.1-0.6-0.1c-0.2,0-0.3,0-0.3,0.1
	c-0.1,0.1-0.1,0.1-0.1,0.2h-0.2V20.5z"/>
<path class="st1" d="M121.1,23.8h-0.2c-0.1-0.1-0.2-0.2-0.2-0.2c-0.1-0.1-0.2-0.1-0.4-0.1c-0.2,0-0.3,0-0.5,0.1
	c-0.2,0.1-0.4,0.1-0.6,0.2c-0.2,0.1-0.5,0.1-0.8,0.2c-0.3,0.1-0.6,0.1-0.9,0.1c-0.6,0-1.3-0.1-1.9-0.4c-0.6-0.2-1.2-0.6-1.7-1.1
	c-0.5-0.5-0.9-1.1-1.3-1.8c-0.3-0.7-0.5-1.5-0.5-2.4c0-0.8,0.1-1.5,0.4-2.2c0.3-0.7,0.7-1.3,1.1-1.8c0.5-0.5,1.1-1,1.7-1.3
	c0.7-0.3,1.4-0.5,2.2-0.5c0.3,0,0.6,0,0.8,0.1c0.2,0.1,0.5,0.1,0.7,0.2c0.2,0.1,0.4,0.1,0.5,0.2c0.2,0.1,0.3,0.1,0.5,0.1
	c0.2,0,0.3,0,0.4-0.1c0.1-0.1,0.2-0.1,0.2-0.2h0.2V16h-0.2c-0.1-0.4-0.2-0.8-0.4-1.1c-0.1-0.4-0.3-0.7-0.6-1c-0.3-0.3-0.6-0.5-1-0.7
	c-0.4-0.2-0.9-0.3-1.5-0.3c-0.5,0-1,0.1-1.4,0.3c-0.4,0.2-0.7,0.4-1,0.7c-0.3,0.3-0.5,0.6-0.6,1c-0.2,0.4-0.3,0.8-0.4,1.2
	c-0.1,0.4-0.1,0.8-0.2,1.3c0,0.4,0,0.8,0,1.2c0,1.1,0.1,2,0.3,2.7c0.2,0.7,0.4,1.3,0.7,1.7c0.3,0.4,0.7,0.7,1.1,0.9
	c0.4,0.2,0.9,0.2,1.5,0.2c0.7,0,1.2-0.1,1.7-0.3c0.4-0.2,0.8-0.4,1-0.8c0.3-0.3,0.4-0.7,0.6-1.1c0.1-0.4,0.3-0.8,0.4-1.2h0.2V23.8z"
	/>
<path class="st1" d="M122.9,18.4c0-0.8,0.2-1.6,0.5-2.3c0.3-0.7,0.7-1.3,1.2-1.8c0.5-0.5,1.1-0.9,1.7-1.2c0.6-0.3,1.3-0.4,1.9-0.4
	c0.7,0,1.3,0.1,2,0.4c0.6,0.3,1.2,0.7,1.7,1.2c0.5,0.5,0.9,1.1,1.2,1.8c0.3,0.7,0.5,1.5,0.5,2.3c0,0.7-0.1,1.4-0.4,2.1
	c-0.3,0.7-0.7,1.3-1.1,1.8c-0.5,0.5-1,1-1.7,1.3c-0.6,0.3-1.3,0.5-2.1,0.5c-0.8,0-1.5-0.2-2.1-0.5c-0.7-0.3-1.2-0.7-1.7-1.3
	c-0.5-0.5-0.8-1.1-1.1-1.8C123.1,19.8,122.9,19.1,122.9,18.4 M124.7,18.4c0,0.9,0.1,1.7,0.2,2.4c0.1,0.7,0.3,1.3,0.6,1.7
	c0.3,0.5,0.7,0.8,1.1,1c0.4,0.2,1,0.3,1.7,0.3c0.7,0,1.2-0.1,1.7-0.3c0.5-0.2,0.8-0.6,1.1-1c0.3-0.5,0.5-1,0.6-1.7
	c0.1-0.7,0.2-1.5,0.2-2.4c0-0.7,0-1.4-0.1-2c-0.1-0.7-0.3-1.2-0.5-1.8c-0.3-0.5-0.6-0.9-1.1-1.2c-0.5-0.3-1.1-0.5-1.8-0.5
	c-0.7,0-1.4,0.2-1.8,0.5c-0.5,0.3-0.8,0.7-1.1,1.2c-0.3,0.5-0.4,1.1-0.5,1.8C124.7,17,124.7,17.7,124.7,18.4"/>
<polygon class="st1" points="135,23.6 136.7,23.6 136.7,13.1 135,13.1 135,12.9 138.5,12.9 141.3,21.2 141.4,21.2 144.2,12.9 
	147.6,12.9 147.6,13.1 145.9,13.1 145.9,23.6 147.6,23.6 147.6,23.8 142.6,23.8 142.6,23.6 144.3,23.6 144.3,13.2 144.3,13.2 
	140.6,23.9 137,13.3 137,13.3 137,23.6 138.7,23.6 138.7,23.8 135,23.8 "/>
<path class="st1" d="M148.4,23.6h1.7V13.1h-1.7v-0.2h2.7c0.2,0,0.3,0,0.5,0c0.2,0,0.3,0,0.5,0c0.2,0,0.3,0,0.5,0c0.2,0,0.3,0,0.4,0
	c0.7,0,1.4,0.1,1.8,0.3c0.5,0.2,0.9,0.4,1.1,0.7c0.3,0.3,0.5,0.5,0.6,0.8c0.1,0.3,0.2,0.6,0.2,0.8c0,0.3-0.1,0.6-0.2,0.9
	c-0.1,0.3-0.3,0.5-0.6,0.8c-0.3,0.2-0.5,0.4-0.9,0.5c-0.3,0.1-0.7,0.2-1,0.3v0c0.4,0,0.7,0.1,1.1,0.2c0.4,0.1,0.7,0.3,1,0.5
	c0.3,0.2,0.6,0.5,0.8,0.8c0.2,0.3,0.3,0.7,0.3,1.2c0,0.5-0.1,0.9-0.3,1.3c-0.2,0.4-0.4,0.7-0.8,1c-0.3,0.3-0.8,0.5-1.3,0.7
	c-0.5,0.2-1.1,0.2-1.9,0.2c-0.1,0-0.3,0-0.4,0c-0.1,0-0.3,0-0.4,0c-0.2,0-0.3,0-0.5,0c-0.2,0-0.3,0-0.5,0h-2.7V23.6z M151.7,17.9
	h1.4c0.3,0,0.5,0,0.8-0.1c0.2-0.1,0.4-0.2,0.6-0.4c0.2-0.2,0.3-0.4,0.4-0.7c0.1-0.3,0.1-0.7,0.1-1.2c0-0.5-0.1-1-0.2-1.3
	c-0.1-0.3-0.3-0.6-0.5-0.7c-0.2-0.2-0.5-0.3-0.7-0.3c-0.3-0.1-0.5-0.1-0.8-0.1c-0.2,0-0.4,0-0.6,0c-0.2,0-0.4,0-0.5,0V17.9z
	 M151.7,23.6c0.1,0,0.3,0,0.4,0c0.1,0,0.4,0,0.6,0c0.5,0,0.9,0,1.2-0.1c0.3-0.1,0.6-0.3,0.8-0.5c0.2-0.2,0.4-0.5,0.5-0.9
	c0.1-0.4,0.2-0.9,0.2-1.4c0-0.8-0.2-1.5-0.5-1.9c-0.3-0.5-0.9-0.7-1.5-0.7h-1.7V23.6z"/>
<path class="st1" d="M158.6,23.6h1.7V13.1h-1.7v-0.2h8.8v2.6h-0.2c-0.1-0.4-0.3-0.7-0.4-1c-0.2-0.3-0.3-0.6-0.6-0.8
	c-0.2-0.2-0.5-0.4-0.8-0.5c-0.3-0.1-0.7-0.2-1.1-0.2h-2.5v4.7h1c0.3,0,0.6,0,0.9-0.1c0.2-0.1,0.4-0.2,0.6-0.3
	c0.2-0.2,0.3-0.4,0.4-0.7c0.1-0.3,0.2-0.7,0.3-1.1h0.2v4.8h-0.2c-0.1-0.3-0.1-0.6-0.2-0.9c-0.1-0.3-0.2-0.5-0.3-0.7
	c-0.1-0.2-0.3-0.4-0.6-0.5c-0.2-0.1-0.5-0.2-0.9-0.2h-1.2v5.5h2.9c0.6,0,1-0.1,1.4-0.4c0.4-0.2,0.7-0.5,0.9-0.9
	c0.2-0.3,0.4-0.7,0.5-1c0.1-0.4,0.2-0.7,0.2-0.9h0.2v3.4h-9.3V23.6z"/>
<path class="st1" d="M170.1,20.5h0.2c0.1,0.6,0.3,1,0.4,1.4c0.2,0.4,0.4,0.7,0.6,0.9c0.2,0.2,0.4,0.4,0.7,0.6
	c0.2,0.1,0.5,0.2,0.7,0.3c0.2,0.1,0.5,0.1,0.7,0.1c0.2,0,0.4,0,0.6,0c0.5,0,1-0.1,1.3-0.2c0.3-0.2,0.6-0.4,0.8-0.6
	c0.2-0.2,0.3-0.5,0.4-0.8c0.1-0.3,0.1-0.6,0.1-0.8c0-0.4-0.1-0.7-0.2-0.9c-0.1-0.3-0.3-0.5-0.5-0.7c-0.2-0.2-0.4-0.3-0.7-0.4
	c-0.2-0.1-0.5-0.2-0.7-0.3l-1.8-0.5c-0.8-0.3-1.5-0.6-1.9-1c-0.4-0.4-0.6-1-0.6-1.7c0-0.5,0.1-0.9,0.2-1.3c0.2-0.4,0.4-0.7,0.7-1
	c0.3-0.3,0.7-0.5,1.1-0.7c0.4-0.2,0.9-0.2,1.4-0.2c0.4,0,0.7,0,0.9,0.1c0.2,0.1,0.4,0.1,0.6,0.2c0.2,0.1,0.3,0.1,0.5,0.2
	c0.1,0.1,0.3,0.1,0.4,0.1c0.1,0,0.2,0,0.3-0.1c0,0,0.1-0.1,0.2-0.3h0.2v2.8h-0.2c-0.1-0.4-0.2-0.7-0.3-1.1c-0.1-0.3-0.3-0.6-0.6-0.9
	c-0.2-0.3-0.5-0.5-0.9-0.6c-0.3-0.2-0.7-0.2-1.2-0.2c-0.2,0-0.5,0-0.8,0.1c-0.3,0.1-0.6,0.2-0.8,0.3c-0.3,0.2-0.5,0.4-0.6,0.6
	c-0.2,0.3-0.3,0.6-0.3,1c0,0.3,0.1,0.6,0.2,0.8c0.1,0.2,0.3,0.4,0.5,0.6c0.2,0.2,0.4,0.3,0.7,0.4c0.3,0.1,0.5,0.2,0.8,0.3l1.9,0.6
	c0.2,0.1,0.4,0.1,0.7,0.2c0.3,0.1,0.6,0.3,0.9,0.5c0.3,0.2,0.5,0.5,0.7,0.8c0.2,0.3,0.3,0.8,0.3,1.3c0,0.5-0.1,0.9-0.3,1.4
	c-0.2,0.4-0.4,0.8-0.8,1.1c-0.3,0.3-0.7,0.6-1.2,0.8c-0.5,0.2-1,0.3-1.6,0.3c-0.2,0-0.4,0-0.6,0c-0.2,0-0.3,0-0.5,0
	c-0.1,0-0.3,0-0.4-0.1c-0.1,0-0.3-0.1-0.5-0.1c-0.2-0.1-0.4-0.1-0.7-0.2c-0.2-0.1-0.4-0.1-0.6-0.1c-0.2,0-0.3,0-0.3,0.1
	c-0.1,0.1-0.1,0.1-0.1,0.2h-0.2V20.5z"/>
</svg>
